<svg xmlns="http://www.w3.org/2000/svg" viewBox="0 0 250.32 192.43"><defs><style>.cls-1{fill:#8aced8;}.cls-2{fill:#69b0bb;}.cls-3{fill:#5d9aa4;}.cls-4{fill:#ffad29;}.cls-5{fill:#fcb07c;}.cls-6{fill:#b2adaa;}</style></defs><title>Recurso 5</title><g id="Capa_2" data-name="Capa 2"><g id="Capa_1-2" data-name="Capa 1"><path d="M244.32,13q-28.6.11-57.19,0a17.82,17.82,0,0,1-5.68-1C172.7,8.9,164,5.65,155.28,2.55c-12-4.27-23.57-3.2-34.49,3.36Q80,30.44,39.26,55.11a10,10,0,0,0-2.57,2.19,17.23,17.23,0,0,0,.45,21.85c4.5,5.16,10.24,6.88,17.07,5.7a35,35,0,0,0,7.31,20H13.92c-8.86,0-13.91,5.08-13.91,14q0,33.86,0,67.7c0,4.75,1.16,5.93,5.88,5.93H177.7c4.72,0,5.85-1.16,5.86-6q0-33.84,0-67.7c0-8.93-5-13.92-13.93-13.93h-55l6.75-16c3.74.84,7.8,1.68,11.83,2.67a16,16,0,0,0,9.35-.44c7.92-2.72,15.91-5.24,23.81-8,12.75-4.5,25.43-9.21,39.35-7.37.33,0,.66,0,1,0,.62.06,1.23.16,2,.26,0,3.78,0,7.35,0,10.93,0,4.24,1.29,5.52,5.57,5.53,10.11,0,20.21,0,30.31,0,2.46,0,4.44-.62,5.79-2.75V15.81C248.93,13.58,246.88,13,244.32,13ZM175,183.94H8.44V146.72H175Zm-33.21-63.45c0-2.34,0-4.69,0-7.31,10,0,19.63-.05,29.24,0,2.16,0,3.93,1.24,4,3.52.15,7.06.06,14.12.06,21.32H8.33V128c0-3.42,0-6.84,0-10.26.05-2.71,1.54-4.5,4.11-4.53,9.6-.09,19.2,0,29.23,0,0,2.46,0,4.78,0,7.1,0,6.3,3.2,9.56,9.42,9.56q40.69,0,81.38,0C138.64,129.84,141.8,126.62,141.82,120.49Zm-8.43-7.32v8.19H50.2v-8.17c7.07,0,14,0,20.87,0a5.41,5.41,0,0,1,2,.79,33.12,33.12,0,0,0,29,0,6.65,6.65,0,0,1,2.49-.85C114.1,113.15,123.61,113.17,133.39,113.17ZM112.89,87l-4.51,12c-2.29-2.36-4-4-5.6-5.84a2.84,2.84,0,0,1-.35-2,10.5,10.5,0,0,0-13.6-11.48,19.05,19.05,0,0,1-3,.93,7.76,7.76,0,0,1-3.36-.32A2.38,2.38,0,0,1,82,78.26a7.76,7.76,0,0,1,3-1.45,21.64,21.64,0,0,1,2.92-.1c2.61-.26,4.17-1.89,4.14-4.23a4,4,0,0,0-4.28-4c-2.57,0-5.14.49-7.72.66a2.77,2.77,0,0,1-1.86-.47c-1.72-1.47-3.34-3.07-5.19-4.8,7.7-6,19.45-6.48,27-1.43a2.33,2.33,0,0,1,.92,1.85C98.93,75.68,101.76,81.38,112.89,87ZM73.11,75.45a2.81,2.81,0,0,1,.46,1.94A10.55,10.55,0,0,0,87.05,89.06a31.14,31.14,0,0,1,3.71-1.17,5,5,0,0,1,2.87.58A2,2,0,0,1,94,90.4,4.82,4.82,0,0,1,91.52,92a23.29,23.29,0,0,1-3.65.11,4.09,4.09,0,0,0-4,4.08,4,4,0,0,0,3.71,4.12,30.83,30.83,0,0,0,7.5-.51,3,3,0,0,1,3.37.9c1.11,1.17,2.43,2.14,3.85,3.36A24.82,24.82,0,0,1,67.55,69.28C69.46,71.37,71.35,73.36,73.11,75.45Zm135.32-8.33a24.8,24.8,0,0,1-3.24.13c-12.15-1-23.69,1.15-35,5.6-9.84,3.84-20,6.84-30.07,10.08a10.43,10.43,0,0,1-5,.3q-9.8-2-19.53-4.35a9.3,9.3,0,0,1-6.91-11,9.51,9.51,0,0,1,10.85-7.28c1.93.28,3.87.52,5.8.79,3.55.5,7.08,1.14,10.65,1.46a10.85,10.85,0,0,0,4.65-.7,68.85,68.85,0,0,0,6.79-3.34c2.59-1.35,3.49-3.58,2.43-5.82a4,4,0,0,0-6-1.63c-5.18,3.83-10.67,2.94-16.32,2a73.55,73.55,0,0,0-9.68-1.2,16.58,16.58,0,0,0-10.76,3.57C101.71,54,97,51.79,92,51.06a32.61,32.61,0,0,0-35.9,22.2,4.5,4.5,0,0,1-3.67,3.33,8.59,8.59,0,0,1-9.16-3.15,8.45,8.45,0,0,1-1-9.42,6,6,0,0,1,2.3-2.38q40.11-24.27,80.28-48.45a31.13,31.13,0,0,1,27.9-2.72c9.11,3.27,18.18,6.63,27.31,9.84a18.42,18.42,0,0,0,5.7,1c7.48.11,15,0,22.67,0Zm33.39,16.74H217.1V21.63h24.72Z"/><rect class="cls-1" x="8.44" y="146.72" width="166.59" height="37.22"/><path class="cls-2" d="M175.11,138.06H8.33V128c0-3.42,0-6.84,0-10.26.05-2.71,1.54-4.5,4.11-4.53,9.6-.09,19.2,0,29.23,0,0,2.46,0,4.78,0,7.1,0,6.3,3.2,9.56,9.42,9.56q40.69,0,81.38,0c6.15,0,9.31-3.22,9.33-9.35,0-2.34,0-4.69,0-7.31,10,0,19.63-.05,29.24,0,2.16,0,3.93,1.24,4,3.52C175.2,123.8,175.11,130.86,175.11,138.06Z"/><path class="cls-3" d="M133.39,113.17v8.19H50.2v-8.17c7.07,0,14,0,20.87,0a5.41,5.41,0,0,1,2,.79,33.12,33.12,0,0,0,29,0,6.65,6.65,0,0,1,2.49-.85C114.1,113.15,123.61,113.17,133.39,113.17Z"/><path class="cls-4" d="M102.28,104A24.82,24.82,0,0,1,67.55,69.28c1.91,2.09,3.8,4.08,5.56,6.17a2.81,2.81,0,0,1,.46,1.94A10.55,10.55,0,0,0,87.05,89.06a31.14,31.14,0,0,1,3.71-1.17,5,5,0,0,1,2.87.58A2,2,0,0,1,94,90.4,4.82,4.82,0,0,1,91.52,92a23.29,23.29,0,0,1-3.65.11,4.09,4.09,0,0,0-4,4.08,4,4,0,0,0,3.71,4.12,30.83,30.83,0,0,0,7.5-.51,3,3,0,0,1,3.37.9C99.54,101.82,100.86,102.79,102.28,104Z"/><path class="cls-4" d="M112.89,87l-4.51,12c-2.29-2.36-4-4-5.6-5.84a2.84,2.84,0,0,1-.35-2,10.5,10.5,0,0,0-13.6-11.48,19.05,19.05,0,0,1-3,.93,7.76,7.76,0,0,1-3.36-.32A2.38,2.38,0,0,1,82,78.26a7.76,7.76,0,0,1,3-1.45,21.64,21.64,0,0,1,2.92-.1c2.61-.26,4.17-1.89,4.14-4.23a4,4,0,0,0-4.28-4c-2.57,0-5.14.49-7.72.66a2.77,2.77,0,0,1-1.86-.47c-1.72-1.47-3.34-3.07-5.19-4.8,7.7-6,19.45-6.48,27-1.43a2.33,2.33,0,0,1,.92,1.85C98.93,75.68,101.76,81.38,112.89,87Z"/><path class="cls-5" d="M208.43,21.35V67.12a24.8,24.8,0,0,1-3.24.13c-12.15-1-23.69,1.15-35,5.6-9.84,3.84-20,6.84-30.07,10.08a10.43,10.43,0,0,1-5,.3q-9.8-2-19.53-4.35a9.3,9.3,0,0,1-6.91-11,9.51,9.51,0,0,1,10.85-7.28c1.93.28,3.87.52,5.8.79,3.55.5,7.08,1.14,10.65,1.46a10.85,10.85,0,0,0,4.65-.7,68.85,68.85,0,0,0,6.79-3.34c2.59-1.35,3.49-3.58,2.43-5.82a4,4,0,0,0-6-1.63c-5.18,3.83-10.67,2.94-16.32,2a73.55,73.55,0,0,0-9.68-1.2,16.58,16.58,0,0,0-10.76,3.57C101.71,54,97,51.79,92,51.06a32.61,32.61,0,0,0-35.9,22.2,4.5,4.5,0,0,1-3.67,3.33,8.59,8.59,0,0,1-9.16-3.15,8.45,8.45,0,0,1-1-9.42,6,6,0,0,1,2.3-2.38q40.11-24.27,80.28-48.45a31.13,31.13,0,0,1,27.9-2.72c9.11,3.27,18.18,6.63,27.31,9.84a18.42,18.42,0,0,0,5.7,1C193.24,21.42,200.73,21.35,208.43,21.35Z"/><path class="cls-6" d="M217.1,21.63V83.86h24.72V21.63Zm16.42,53.79h-8.05v-8h8.05Z"/><rect x="225.47" y="67.39" width="8.05" height="8.03"/></g></g></svg>