<svg xmlns="http://www.w3.org/2000/svg" viewBox="0 0 591.03 528.09"><defs><style>.cls-1{fill:#fff;}</style></defs><title>Recurso 8</title><g id="Capa_2" data-name="Capa 2"><g id="Capa_1-2" data-name="Capa 1"><path class="cls-1" d="M590.65,381.23a179.8,179.8,0,0,0-5.13-56.17,133.43,133.43,0,0,0-9-30c-1.36-5.77-4.74-10.64-7.06-16a77.6,77.6,0,0,0-9-17,90.12,90.12,0,0,0-13.91-20c-3.84-6.94-9.34-12.51-14.93-18a61.43,61.43,0,0,0-11.13-11c-2.56-3.59-6.65-5.41-9.75-8.38-3.36-3.46-7.35-6.08-11.71-9.07-3.13,10.66-7.31,20.5-11.32,30.4a322.83,322.83,0,0,1-21.23,36c-8.19,10.06-16.38,20.1-25.8,29.07-16.15,15.37-34.45,27.64-54.08,38-14.93,6.59-30.1,12.47-46,16.21a292.05,292.05,0,0,1-31,4.9h0l-27,.85h0l-20-1.88c-4.64-.88-9.24-2-14-2.12-1.79.42-3.15-1-4.82-1.11h0a21.9,21.9,0,0,0-8-2h0l-16.09-5a3.9,3.9,0,0,0-.91-.36l-17.05-6.91-13.77-6.83-15.22-9.14L161.61,308l-11.15-9-11.09-10c-2.5-4.12-6.54-6.73-9.88-10-2.23-4.32-5.8-7.54-9.05-11-1.25-4.12-5.58-6.06-7.08-10l-6.71-10-6.26-11-6-12-6.26-15.2c-2,8.2-3.65,15.09-4.35,22.16h0a125.85,125.85,0,0,0-2.08,21,97.49,97.49,0,0,0,0,17l.08,3.05a17.21,17.21,0,0,0,.66,7.2,0,0,0,0,0,0,0c.08,1.57.17,3.14.25,4.71-.27,5.12,1,10,2,15a94.18,94.18,0,0,0,3.39,18.41,4.29,4.29,0,0,0,.46,1.66,59.17,59.17,0,0,0,3.93,15.2h0a47,47,0,0,0,4,12.76,70.1,70.1,0,0,0,6.06,16.07,56.66,56.66,0,0,0,5.76,13h0a88.42,88.42,0,0,0,8.31,15.9,74.76,74.76,0,0,0,8.82,14.39h0a65.44,65.44,0,0,0,9.06,12.84,80.46,80.46,0,0,0,10.1,12.8c.78,1.77,2.27,2.91,3.67,4.13,1.25,1.77,2.46,3.58,4.4,4.71a37.84,37.84,0,0,0,7.93,8.15,80,80,0,0,0,12,10.94,86,86,0,0,0,14,11.09,89.6,89.6,0,0,0,14.9,10.26,107.26,107.26,0,0,0,18.13,10.57,135,135,0,0,0,23,11,140.79,140.79,0,0,0,24,9,147.22,147.22,0,0,0,26,7.14,144.76,144.76,0,0,0,24,4.77,111.72,111.72,0,0,0,19,2.17h0l2.87.14a9.08,9.08,0,0,0,1,.29,31.48,31.48,0,0,0,8.11.48c9.7.2,19.39.65,29-.81,9.13.4,18.14-1,27.14-2.1,13.43-1.63,26.87-3.29,40-6.86a10.88,10.88,0,0,0,2-.05,477.59,477.59,0,0,0,107.76-37.4c9.81-4.77,16-11.13,19.91-21.08,8.2-20.78,14.84-41.86,16.31-64.31a3.27,3.27,0,0,0,.26-.65,10,10,0,0,0,.43-4.51c.1-3,.21-5.92.31-8.87Z"/><path class="cls-1" d="M357.57,56.12h0c-5.44-2.31-11.28-2.91-17-4.08A41.46,41.46,0,0,0,327.84,50c-2.58-1.23-5.34-1-8.07-1a12.5,12.5,0,0,0-1.48-.34c-4.5-.95-9.08-.69-13.65-.62a2.64,2.64,0,0,0-2.21-.37,31.51,31.51,0,0,0-7.7-.13,11.08,11.08,0,0,0-3.21.5l-2.95.08h0a58.92,58.92,0,0,0-15,1.08c-2.76-.36-5.37.53-8,1l-7,1.09a100.35,100.35,0,0,0-17,3.92h0a146.17,146.17,0,0,0-29,10.06,65.77,65.77,0,0,0-14,6.75,52.41,52.41,0,0,0-12.11,6.68h0a208.26,208.26,0,0,0-70.56,68.37A61.85,61.85,0,0,0,109.3,158h0a52.21,52.21,0,0,0-6.57,12.11,215.58,215.58,0,0,0-10.32,25.6c-.59,1.87-1.58,3.71.1,5.53a34.19,34.19,0,0,0,3.9,10.19h0c.11.55.22,1.09.32,1.64q1.24,2.56,2.48,5.11h0a49.43,49.43,0,0,0,5.4,10.81h0a22.57,22.57,0,0,0,3.89,7.12,24.42,24.42,0,0,0,5,8.2h0a26.9,26.9,0,0,0,5.11,7.78,38.55,38.55,0,0,0,6.86,9.28h0c3.24,5.2,7.42,9.6,11.86,14.36,5.45-17,16.69-27.94,32.52-34.54l10.82-2.35,12.93.05h0a80.36,80.36,0,0,1,15,4.36c4.1,2.25,8.57,3.55,13,5l8.09,2.51a63.52,63.52,0,0,0,12,3.13,71.16,71.16,0,0,0,16,3c15.3,2.62,30.66,3.93,46.17,2.18h0l6.87-.31a8.72,8.72,0,0,0,5.08-.72h0a45,45,0,0,0,13.93-2,28.5,28.5,0,0,0,10-2c4.17-.29,8.06-1.69,11.95-3.06a119.77,119.77,0,0,0,20.08-6.94A79.46,79.46,0,0,0,391.24,235a193.51,193.51,0,0,0,24.61-14.68,209.74,209.74,0,0,0,63-68.75c.77-1.33,2.38-2.53,1.34-4.45l-4-6.05a22.17,22.17,0,0,0-4.52-6.05,20.15,20.15,0,0,0-4.43-5.9l-4.35-5.2h0c-2.8-4.15-6.4-7.59-10-11h0a63.3,63.3,0,0,0-11.62-10.8,64,64,0,0,0-13.65-11.22C424,87,419,85,414.8,82a61.39,61.39,0,0,0-13.31-7.89,48,48,0,0,0-12-6,57,57,0,0,0-14.65-6.15h0C369.47,58.87,363.42,57.8,357.57,56.12Zm52.31,51.33a12.42,12.42,0,0,0-.65,3.36c-1.23,8.73-6.16,13.34-15,14a9.38,9.38,0,0,0-3.36.61l-.36.38c-3-3.69-7-6.23-10.76-9a3.72,3.72,0,0,0,.66-3.25,9.83,9.83,0,0,1-.2-5.48,2.76,2.76,0,0,0-.18-1.25l.28-.2c2.64-3.07,4.25-6.91,8.36-8.86,3.9-1.85,7.76-.85,11.64-1.17l.42-.43c3.2,3.62,6.34,7.29,9.51,10.94Z"/><path class="cls-1" d="M104,117.22c14.67-16.06,31.69-29.25,49.89-41,2.94-2,6.09-3.6,9.19-5.32,8.23-4.56,17.18-7.52,25.51-11.82l24.11-7.94,17.93-4h0l14-2.08h0l3-.16a9.84,9.84,0,0,0,5.2-.69h0a43.51,43.51,0,0,0,10-1.54,3.57,3.57,0,0,0,1.83-.52L282.58,40l8-.15h14.92l15,1,26,4.15,11.36,3.23.5-1-9.68-6.64h0c-6.54-3.56-11.9-9-19-11.7-3.16-3.32-8-3.26-11.56-5.88-4.13-2.93-8.87-4.5-13.6-6.1a53.29,53.29,0,0,0-13.95-5.14,29,29,0,0,0-9.79-2.95h0A33.67,33.67,0,0,0,269.63,6h0a25.74,25.74,0,0,0-9.94-2h0A46,46,0,0,0,245.81,2h0c-3.26-1.31-6.69-.9-10.06-1h0c-8-1.48-16.12-.88-24.2-.74l-15,1a9.43,9.43,0,0,0-4.57.5.83.83,0,0,0-.5.27c-3.4-.37-6.63.52-9.89,1.22L170.53,5.29a127.45,127.45,0,0,0-22,5.94,144.44,144.44,0,0,0-29,11.69c-1.37.57-2.78,1.06-4.1,1.73a225.66,225.66,0,0,0-63.85,48c-13.86,14.91-26,31.07-35,49.44a139.12,139.12,0,0,0-12.9,29h0C1,157.12-1,163.31.55,170.1a13.4,13.4,0,0,0,2,8.1,11.42,11.42,0,0,0,3,6,21.54,21.54,0,0,0,9,9.18h0a25.34,25.34,0,0,0,14.07,5.47c14.4,1.61,25.89-3.66,32.66-16.28,6.18-11.52,12.09-23.21,18.33-34.71h0c1.71-.68,2.17-2.42,3.07-3.74A251.7,251.7,0,0,1,104,117.22ZM302.59,39l-.19,0,.44-.27Z"/><path class="cls-1" d="M189.61,309.92c.8.1,1.16.26,1.41.15,21.67-9.4,36.58-25.27,45.18-47.18,1.46-3.72-1-3.81-3.47-3.89a2.8,2.8,0,0,0-.84-.29l-27.69-9.63c2,12.81.6,24.95-2.47,36.95C198.65,294.39,195.06,302.51,189.61,309.92Z"/></g></g></svg>