<svg xmlns="http://www.w3.org/2000/svg" viewBox="0 0 29.68 44.9"><defs><style>.cls-1{fill:#d2792c;}.cls-2{fill:#83291d;}.cls-3{fill:#e5b222;}.cls-4{fill:#a7465a;}.cls-5{fill:#bf544e;}.cls-6{fill:#dd9b50;}.cls-7{fill:#171313;}.cls-8{fill:#fff;}.cls-9{fill:#110d0e;}.cls-10{fill:#c4c3c2;}.cls-11{fill:#c6c5c4;}.cls-12{fill:#97969b;}.cls-13{fill:#d3d2d1;}.cls-14{fill:#907850;}.cls-15{fill:#116348;}.cls-16{fill:#9a999e;}.cls-17{fill:#87281c;}.cls-18{fill:#0f0c0c;}.cls-19{fill:#e8b422;}</style></defs><title>Logo</title><g id="Capa_2" data-name="Capa 2"><g id="logo"><polygon class="cls-1" points="1.81 22.83 0.74 23.52 0.74 21.57 1.81 22.83"/><polygon class="cls-2" points="2.71 22.24 1.81 22.83 0.74 21.57 0.74 19.8 2.71 22.24"/><polygon class="cls-3" points="3.61 21.66 2.71 22.24 0.74 19.8 0.74 18.69 1.22 18.68 3.61 21.66"/><polygon class="cls-1" points="4.54 21.06 3.61 21.66 1.22 18.68 2.6 18.65 4.54 21.06"/><polygon class="cls-2" points="5.43 20.48 4.54 21.06 2.6 18.65 3.92 18.62 3.93 18.62 5.43 20.48"/><polygon class="cls-3" points="6.19 19.92 6.19 19.99 5.43 20.48 3.93 18.62 5.3 18.58 6.19 19.92"/><polygon class="cls-1" points="6.26 18.56 6.19 19.92 5.3 18.58 6.26 18.56"/><polygon class="cls-1" points="27.96 22.83 29.03 23.52 29.03 21.57 27.96 22.83"/><polygon class="cls-2" points="27.06 22.24 27.96 22.83 29.03 21.57 29.03 19.8 27.06 22.24"/><polygon class="cls-3" points="26.16 21.66 27.06 22.24 29.03 19.8 29.03 18.69 28.55 18.68 26.16 21.66"/><polygon class="cls-1" points="25.23 21.06 26.16 21.66 28.55 18.68 27.17 18.65 25.23 21.06"/><polygon class="cls-2" points="24.34 20.48 25.23 21.06 27.17 18.65 25.85 18.62 25.84 18.62 24.34 20.48"/><polygon class="cls-3" points="23.58 19.92 23.58 19.99 24.34 20.48 25.84 18.62 24.47 18.58 23.58 19.92"/><polygon class="cls-1" points="23.51 18.56 23.58 19.92 24.47 18.58 23.51 18.56"/><rect class="cls-4" x="0.9" y="15.92" width="27.89" height="2.49"/><rect class="cls-5" x="0.9" y="13.44" width="27.89" height="2.48"/><path class="cls-1" d="M17.3,14.38a6.09,6.09,0,0,0-5.66.46.22.22,0,0,1,.09.17.24.24,0,0,1-.2.23v1.14l3.31-2.14,1.66,1.08.69.44L18,15a.22.22,0,0,1,.15-.2A6.21,6.21,0,0,0,17.3,14.38Z"/><path class="cls-2" d="M18.18,15.24V16.4l-1-.64L18,15h0A.25.25,0,0,0,18.18,15.24Z"/><path class="cls-3" d="M15.12,13.83l.66.71.65-.57-.52-.17Z"/><polygon class="cls-3" points="11.52 15.98 13.39 14.02 13.82 13.89 14.55 14.54 11.52 16.61 11.52 15.98"/><polygon class="cls-3" points="18.25 14.71 17.96 15 17.2 15.76 17.11 15.85 16.5 15.32 16.43 15.25 17.3 14.38 17.45 14.23 18.25 14.71"/><rect class="cls-6" x="0.9" y="8.9" width="27.89" height="4.54"/><rect class="cls-7" x="0.55" y="18.32" width="28.24" height="0.47"/><polygon class="cls-8" points="28.8 23.45 28.8 34.98 0.91 34.98 0.91 23.45 14.85 14.73 28.8 23.45"/><polygon class="cls-9" points="29.3 23.56 29.3 24.16 28.8 23.86 23.73 20.57 23.27 20.27 22.32 19.66 21.64 19.21 18.63 17.25 18.18 16.97 14.85 14.8 11.54 16.95 11.1 17.24 8.05 19.21 7.37 19.66 6.45 20.26 6 20.55 0.91 23.86 0.41 24.18 0.41 23.58 0.91 23.26 6 19.97 6.45 19.68 6.46 19.66 7.17 19.21 11.1 16.67 11.54 16.38 14.85 14.24 18.18 16.4 18.63 16.69 22.52 19.21 23.21 19.66 23.27 19.7 23.73 19.99 28.8 23.27 29.3 23.56"/><polygon class="cls-10" points="29.07 26.08 29.02 26.38 28.8 26.24 14.85 17.17 0.91 26.23 0.68 26.38 0.61 26.08 0.91 25.89 14.85 16.87 28.8 25.9 29.07 26.08"/><path class="cls-7" d="M16.66,22.43a1.82,1.82,0,1,1-1.82-1.82A1.82,1.82,0,0,1,16.66,22.43Z"/><path class="cls-11" d="M14.84,20.09a2.35,2.35,0,1,0,2.34,2.35A2.35,2.35,0,0,0,14.84,20.09Zm0,4.4a2.06,2.06,0,1,1,2.05-2A2.05,2.05,0,0,1,14.84,24.49Z"/><path class="cls-11" d="M14.84,19.58a2.87,2.87,0,1,0,2.87,2.87A2.87,2.87,0,0,0,14.84,19.58Zm0,5.45a2.59,2.59,0,1,1,2.58-2.59A2.59,2.59,0,0,1,14.84,25Z"/><path class="cls-12" d="M14.8,15.25a.49.49,0,0,0-.5.49v.86h1v-.86A.5.5,0,0,0,14.8,15.25ZM15,16.3H14.6v-.56a.2.2,0,0,1,.2-.19.2.2,0,0,1,.19.19Z"/><path class="cls-12" d="M16.09,16a.49.49,0,0,0-.5.49v.86h1v-.86A.49.49,0,0,0,16.09,16Zm.19,1h-.39v-.56a.2.2,0,0,1,.2-.19.2.2,0,0,1,.19.19Z"/><path class="cls-12" d="M17.2,16.69a.49.49,0,0,0-.5.49V18h1v-.86A.49.49,0,0,0,17.2,16.69Zm.19,1H17v-.56a.2.2,0,0,1,.2-.19.2.2,0,0,1,.19.19Z"/><path class="cls-12" d="M13.59,16a.49.49,0,0,1,.5.49v.86h-1v-.86A.49.49,0,0,1,13.59,16Zm-.19,1h.39v-.56a.2.2,0,0,0-.2-.19.2.2,0,0,0-.19.19Z"/><path class="cls-12" d="M12.49,16.69a.49.49,0,0,1,.5.49V18H12v-.86A.49.49,0,0,1,12.49,16.69Zm-.19,1h.39v-.56a.2.2,0,0,0-.2-.19.2.2,0,0,0-.19.19Z"/><path class="cls-12" d="M2.07,23.43a.49.49,0,0,1,.5.49v.86h-1v-.86A.49.49,0,0,1,2.07,23.43Zm-.19,1.05h.39v-.56a.2.2,0,0,0-.2-.19.2.2,0,0,0-.19.19Z"/><path class="cls-12" d="M1,24.12a.49.49,0,0,1,.5.49v.86h-1v-.86A.49.49,0,0,1,1,24.12ZM.77,25.17h.39v-.56a.2.2,0,0,0-.2-.19.2.2,0,0,0-.19.19Z"/><path class="cls-12" d="M4.3,22a.49.49,0,0,1,.5.49v.86h-1v-.86A.49.49,0,0,1,4.3,22ZM4.11,23H4.5v-.56a.2.2,0,0,0-.2-.19.2.2,0,0,0-.19.19Z"/><path class="cls-12" d="M5.4,21.24a.49.49,0,0,1,.5.49v.86h-1v-.86A.49.49,0,0,1,5.4,21.24Zm-.19,1.05H5.6v-.56a.2.2,0,0,0-.2-.19.2.2,0,0,0-.19.19Z"/><path class="cls-12" d="M3.19,22.66a.49.49,0,0,1,.5.49V24h-1v-.86A.49.49,0,0,1,3.19,22.66ZM3,23.71h.39v-.56a.2.2,0,0,0-.2-.19.2.2,0,0,0-.19.19Z"/><path class="cls-12" d="M27.59,23.46a.49.49,0,0,0-.5.49v.86h1V24A.49.49,0,0,0,27.59,23.46Zm.19,1.05h-.39V24a.2.2,0,0,1,.2-.19.2.2,0,0,1,.19.19Z"/><path class="cls-12" d="M28.7,24.15a.49.49,0,0,0-.5.49v.86h1v-.86A.49.49,0,0,0,28.7,24.15Zm.19,1.05H28.5v-.56a.2.2,0,0,1,.2-.19.2.2,0,0,1,.19.19Z"/><path class="cls-12" d="M27.27,28.05v-.91a.53.53,0,0,0-1.06,0v.91H26a.75.75,0,0,0,.75.75.74.74,0,0,0,.74-.75Zm-.74,0v-.91a.21.21,0,0,1,.22-.2.21.21,0,0,1,.2.2v.91Z"/><path class="cls-12" d="M3.41,28.05v-.91a.53.53,0,0,0-1.06,0v.91H2.14a.75.75,0,0,0,.75.75.74.74,0,0,0,.74-.75Zm-.74,0v-.91a.21.21,0,0,1,.22-.2.21.21,0,0,1,.2.2v.91Z"/><path class="cls-12" d="M25.36,22a.49.49,0,0,0-.5.49v.86h1v-.86A.49.49,0,0,0,25.36,22ZM25.55,23h-.39v-.56a.2.2,0,0,1,.2-.19.2.2,0,0,1,.19.19Z"/><path class="cls-12" d="M24.26,21.27a.49.49,0,0,0-.5.49v.86h1v-.86A.49.49,0,0,0,24.26,21.27Zm.19,1.05h-.39v-.56a.2.2,0,0,1,.2-.19.2.2,0,0,1,.19.19Z"/><path class="cls-12" d="M26.47,22.69a.49.49,0,0,0-.5.49V24h1v-.86A.49.49,0,0,0,26.47,22.69Zm.19,1h-.39v-.56a.2.2,0,0,1,.2-.19.2.2,0,0,1,.19.19Z"/><path class="cls-7" d="M4.07,31.58v3.23H1.71V31.58a1.18,1.18,0,0,1,2.36,0Z"/><path class="cls-7" d="M4.28,34.81v.11H1.49v-.11h.22V31.58a1.18,1.18,0,0,1,2.36,0v3.23Z"/><path class="cls-13" d="M4.57,31.54v3.27H4.28V31.6a1.4,1.4,0,0,0-2.79,0v3.21H1.21V31.54a1.69,1.69,0,0,1,3.37,0Z"/><path class="cls-13" d="M5,31.57v3.24H4.75V31.56a1.87,1.87,0,0,0-3.73,0v3.25H.75V31.57a2.14,2.14,0,1,1,4.27,0Z"/><path class="cls-14" d="M26.59,30.8V32a1.21,1.21,0,0,1-.69-.33v0A.82.82,0,0,1,26.59,30.8Z"/><path class="cls-14" d="M27.58,31.63v0a1.18,1.18,0,0,1-.68.33V30.8A.83.83,0,0,1,27.58,31.63Z"/><path class="cls-14" d="M2.74,30.8V32a1.21,1.21,0,0,1-.69-.33v0A.82.82,0,0,1,2.74,30.8Z"/><path class="cls-14" d="M3.73,31.63v0a1.18,1.18,0,0,1-.68.33V30.8A.84.84,0,0,1,3.73,31.63Z"/><path class="cls-7" d="M27.92,31.58v3.23H25.57V31.58a1.18,1.18,0,0,1,2.35,0Z"/><path class="cls-7" d="M28.14,34.81v.11H25.35v-.11h.22V31.58a1.18,1.18,0,0,1,2.35,0v3.23Z"/><path class="cls-13" d="M28.43,31.54v3.27h-.29V31.6a1.4,1.4,0,0,0-2.79,0v3.21h-.28V31.54a1.69,1.69,0,0,1,3.37,0Z"/><path class="cls-13" d="M28.88,31.57v3.24h-.27V31.56a1.87,1.87,0,0,0-3.73,0v3.25h-.28V31.57a2.14,2.14,0,1,1,4.27,0Z"/><path class="cls-14" d="M26.59,30.8V32a1.21,1.21,0,0,1-.69-.33v0A.82.82,0,0,1,26.59,30.8Z"/><path class="cls-14" d="M27.58,31.63v0a1.18,1.18,0,0,1-.68.33V30.8A.84.84,0,0,1,27.58,31.63Z"/><path class="cls-7" d="M17.11,34.86H12.82V30.18a2,2,0,0,1,4.05,0v4.68Z"/><path class="cls-13" d="M14.84,27.59a2.55,2.55,0,0,0-2.54,2.56v4.72h.27v-4.7a2.27,2.27,0,1,1,4.54,0v4.7h.29V30.15A2.56,2.56,0,0,0,14.84,27.59Z"/><path class="cls-13" d="M14.84,27.14a3.1,3.1,0,0,0-3.1,3.1v4.63h.34V30.2a2.76,2.76,0,0,1,5.52,0v4.67H18V30.24A3.1,3.1,0,0,0,14.84,27.14Z"/><path class="cls-14" d="M14.66,28.5v2.39a2.44,2.44,0,0,1-1.57-.71A1.73,1.73,0,0,1,14.66,28.5Z"/><path class="cls-14" d="M16.59,30.19a2.5,2.5,0,0,1-1.57.7V28.5A1.72,1.72,0,0,1,16.59,30.19Z"/><path d="M0,8V38.9a4.55,4.55,0,0,0,1.15,3.48,4.46,4.46,0,0,0,1.62,1.09,5.84,5.84,0,0,0,2.18.4h7.88a3.72,3.72,0,0,1,1.71.75l.33.28.29-.3a2.39,2.39,0,0,1,1.63-.73h8.77a4.77,4.77,0,0,0,2.8-1.32,4.55,4.55,0,0,0,.91-1.27,4.44,4.44,0,0,0,.4-1.57V8ZM28.8,39.66A3.65,3.65,0,0,1,25.49,43H16.77a3.24,3.24,0,0,0-1.22.28,4,4,0,0,0-.73.45A4.51,4.51,0,0,0,12.94,43H5a4.17,4.17,0,0,1-3.14-1.2A3.71,3.71,0,0,1,.9,39V8.9H28.8Z"/><path class="cls-15" d="M28.8,35.24v4.42A3.65,3.65,0,0,1,25.49,43H16.77a3.24,3.24,0,0,0-1.22.28,4,4,0,0,0-.73.45A4.51,4.51,0,0,0,12.94,43H5a4.17,4.17,0,0,1-3.14-1.2A3.71,3.71,0,0,1,.9,39V35.24Z"/><rect class="cls-7" x="0.6" y="34.66" width="28.49" height="0.58"/><rect class="cls-14" x="6.44" y="31.83" width="4.65" height="2.81"/><rect class="cls-8" x="6.44" y="24.11" width="4.65" height="7.27"/><rect class="cls-8" x="6.44" y="19.66" width="4.65" height="4"/><rect class="cls-8" x="6.44" y="15.24" width="4.65" height="3.97"/><rect class="cls-8" x="6.44" y="10.76" width="4.65" height="4.03"/><rect class="cls-8" x="6.44" y="6.46" width="4.65" height="3.85"/><path class="cls-16" d="M8.76,7.05h0a.53.53,0,0,1,.53.53v2a0,0,0,0,1,0,0H8.24a0,0,0,0,1,0,0v-2a.53.53,0,0,1,.53-.53Z"/><path class="cls-16" d="M10.65,7.13h0a.43.43,0,0,1,.43.43v2a0,0,0,0,1,0,0h-.86a0,0,0,0,1,0,0v-2A.43.43,0,0,1,10.65,7.13Z"/><path class="cls-16" d="M6.82,7.13h0a.43.43,0,0,1,.43.43v2a0,0,0,0,1,0,0H6.39a0,0,0,0,1,0,0v-2a.43.43,0,0,1,.43-.43Z"/><path class="cls-16" d="M8.76,11.44h0a.53.53,0,0,1,.53.53v2a0,0,0,0,1,0,0H8.24a0,0,0,0,1,0,0V12A.53.53,0,0,1,8.76,11.44Z"/><path class="cls-16" d="M10.65,11.52h0a.43.43,0,0,1,.43.43v2a0,0,0,0,1,0,0h-.86a0,0,0,0,1,0,0v-2A.43.43,0,0,1,10.65,11.52Z"/><path class="cls-16" d="M6.82,11.52h0a.43.43,0,0,1,.43.43v2a0,0,0,0,1,0,0H6.39a0,0,0,0,1,0,0v-2A.43.43,0,0,1,6.82,11.52Z"/><path class="cls-16" d="M8.76,15.92h0a.53.53,0,0,1,.53.53v2a0,0,0,0,1,0,0H8.24a0,0,0,0,1,0,0v-2a.53.53,0,0,1,.53-.53Z"/><path class="cls-16" d="M10.65,16h0a.43.43,0,0,1,.43.43v2a0,0,0,0,1,0,0h-.86a0,0,0,0,1,0,0v-2A.43.43,0,0,1,10.65,16Z"/><path class="cls-16" d="M6.82,16h0a.43.43,0,0,1,.43.43v2a0,0,0,0,1,0,0H6.39a0,0,0,0,1,0,0v-2A.43.43,0,0,1,6.82,16Z"/><path class="cls-16" d="M8.76,20.39h0a.53.53,0,0,1,.53.53v2a0,0,0,0,1,0,0H8.24a0,0,0,0,1,0,0v-2A.53.53,0,0,1,8.76,20.39Z"/><path class="cls-16" d="M10.65,20.46h0a.43.43,0,0,1,.43.43v2a0,0,0,0,1,0,0h-.86a0,0,0,0,1,0,0v-2a.43.43,0,0,1,.43-.43Z"/><path class="cls-16" d="M6.82,20.46h0a.43.43,0,0,1,.43.43v2a0,0,0,0,1,0,0H6.39a0,0,0,0,1,0,0v-2a.43.43,0,0,1,.43-.43Z"/><path class="cls-16" d="M8.76,24.86h0a.53.53,0,0,1,.53.53v2a0,0,0,0,1,0,0H8.24a0,0,0,0,1,0,0v-2A.53.53,0,0,1,8.76,24.86Z"/><path class="cls-16" d="M10.65,24.93h0a.43.43,0,0,1,.43.43v2a0,0,0,0,1,0,0h-.86a0,0,0,0,1,0,0v-2A.43.43,0,0,1,10.65,24.93Z"/><path class="cls-16" d="M6.82,24.93h0a.43.43,0,0,1,.43.43v2a0,0,0,0,1,0,0H6.39a0,0,0,0,1,0,0v-2a.43.43,0,0,1,.43-.43Z"/><path class="cls-16" d="M8.76,28.92h0a.53.53,0,0,1,.53.53v2a0,0,0,0,1,0,0H8.24a0,0,0,0,1,0,0v-2A.53.53,0,0,1,8.76,28.92Z"/><path class="cls-16" d="M10.65,29h0a.43.43,0,0,1,.43.43v2a0,0,0,0,1,0,0h-.86a0,0,0,0,1,0,0v-2a.43.43,0,0,1,.43-.43Z"/><path class="cls-16" d="M6.82,29h0a.43.43,0,0,1,.43.43v2a0,0,0,0,1,0,0H6.39a0,0,0,0,1,0,0v-2A.43.43,0,0,1,6.82,29Z"/><polygon class="cls-3" points="10.22 4.26 10.18 4.31 9.56 4.94 8.51 3.87 8.43 3.79 9.48 3.81 10.22 4.26"/><polygon class="cls-3" points="11.07 5.38 11.01 5.47 10.51 6.11 6.45 6.06 6.33 6.06 6.41 5.98 6.46 5.93 8.04 4.36 9.55 5.88 10.69 4.75 11.07 5.38"/><polygon class="cls-17" points="7.33 6.03 8.05 5.25 8.79 6.05 8.11 6.13 7.33 6.03"/><polygon class="cls-17" points="10.37 6.04 11.08 5.27 11.19 6.08 11.14 6.15 10.37 6.04"/><path class="cls-1" d="M10.64,4.79,9.55,5.88,8,4.36,6.45,5.93A2.3,2.3,0,0,1,8.5,3.87L9.56,4.94l.61-.63A2.37,2.37,0,0,1,10.64,4.79Z"/><path d="M11.57,6.11h-.48A2.25,2.25,0,0,0,11,5.47a2.22,2.22,0,0,0-.36-.68,2.37,2.37,0,0,0-.47-.48,2.41,2.41,0,0,0-1.4-.45H8.5a2.3,2.3,0,0,0-2,2.06.57.57,0,0,0,0,.13v.05H6A2.73,2.73,0,0,1,7.74,3.58a2.4,2.4,0,0,1,.38-.12,2.81,2.81,0,0,1,.65-.07,2.59,2.59,0,0,1,.63.07,2.38,2.38,0,0,1,.38.11A2.72,2.72,0,0,1,11.57,6.11Z"/><path class="cls-8" d="M9.4,2.51v1a2.59,2.59,0,0,0-.63-.07,2.81,2.81,0,0,0-.65.07v-1Z"/><polygon points="9.79 2.13 9.79 3.65 9.4 3.65 9.4 2.51 8.13 2.51 8.13 3.65 7.75 3.65 7.75 2.13 9.79 2.13"/><path class="cls-18" d="M8.76,2.71h0a.3.3,0,0,1,.3.3v.4a0,0,0,0,1,0,0h-.6a0,0,0,0,1,0,0V3A.3.3,0,0,1,8.76,2.71Z"/><path d="M9.76,2.13h-2a1,1,0,0,1,2,0Z"/><path class="cls-19" d="M9.4,2.13H8.12a.65.65,0,0,1,1.28,0Z"/><rect x="7.51" y="2.13" width="2.5" height="0.46" rx="0.23"/><rect x="8.2" y="0.46" width="1.06" height="0.31" rx="0.15"/><rect x="8.57" width="0.33" height="1.5" rx="0.14"/><path class="cls-8" d="M15.53,12.48v.95a2.59,2.59,0,0,0-.63-.07,2.81,2.81,0,0,0-.65.07v-.95Z"/><path class="cls-18" d="M14.89,12.68h0a.3.3,0,0,1,.3.3v.4a0,0,0,0,1,0,0h-.6a0,0,0,0,1,0,0V13A.3.3,0,0,1,14.89,12.68Z"/><path d="M15.9,12.1v1.52h-.38V12.48H14.25v1.14h-.38V12.1a1,1,0,0,1,2,0Z"/><path class="cls-19" d="M15.53,12.08H14.25a.65.65,0,0,1,1.28,0Z"/><rect x="14.08" y="10.06" width="1.58" height="0.31" rx="0.15"/><rect x="14.69" y="9.45" width="0.33" height="1.96" rx="0.17"/><path d="M11.53,23.67v-4a.23.23,0,0,0,0-.45v-4a.24.24,0,0,0,.2-.23.24.24,0,0,0-.2-.22v-4a.22.22,0,0,0,.2-.22.23.23,0,0,0-.2-.22V6.46a.23.23,0,0,0,0-.45H6a.23.23,0,0,0-.23.23A.22.22,0,0,0,6,6.46v3.85a.23.23,0,0,0-.21.22.24.24,0,0,0,.21.23v4a.23.23,0,0,0-.21.22.24.24,0,0,0,.21.23v4a.22.22,0,0,0-.19.22.22.22,0,0,0,.19.23v4a.22.22,0,0,0,0,.44V34.87a.22.22,0,0,0,.23.22h5.1a.22.22,0,0,0,.21-.22V24.11a.22.22,0,0,0,0-.44ZM6.44,6.46h4.65v3.85H6.44Zm0,4.3h4.65v4H6.44Zm4.65,23.88H6.44V31.83h4.65Zm0-3.26H6.44V24.11h4.65Zm0-7.72H6.44v-4h4.65Zm0-4.45H6.44v-4h4.65Z"/><rect class="cls-14" x="18.62" y="31.83" width="4.65" height="2.81"/><rect class="cls-8" x="18.62" y="24.11" width="4.65" height="7.27"/><rect class="cls-8" x="18.62" y="19.66" width="4.65" height="4"/><rect class="cls-8" x="18.62" y="15.24" width="4.65" height="3.97"/><rect class="cls-8" x="18.62" y="10.76" width="4.65" height="4.03"/><rect class="cls-8" x="18.62" y="6.46" width="4.65" height="3.85"/><path class="cls-16" d="M21,7.05h0a.53.53,0,0,1,.53.53v2a0,0,0,0,1,0,0H20.45a0,0,0,0,1,0,0v-2A.53.53,0,0,1,21,7.05Z"/><path class="cls-16" d="M22.86,7.13h0a.43.43,0,0,1,.43.43v2a0,0,0,0,1,0,0h-.86a0,0,0,0,1,0,0v-2A.43.43,0,0,1,22.86,7.13Z"/><path class="cls-16" d="M19,7.13h0a.43.43,0,0,1,.43.43v2a0,0,0,0,1,0,0h-.86a0,0,0,0,1,0,0v-2A.43.43,0,0,1,19,7.13Z"/><path class="cls-16" d="M21,11.44h0a.53.53,0,0,1,.53.53v2a0,0,0,0,1,0,0H20.45a0,0,0,0,1,0,0V12a.53.53,0,0,1,.53-.53Z"/><path class="cls-16" d="M22.86,11.52h0a.43.43,0,0,1,.43.43v2a0,0,0,0,1,0,0h-.86a0,0,0,0,1,0,0v-2A.43.43,0,0,1,22.86,11.52Z"/><path class="cls-16" d="M19,11.52h0a.43.43,0,0,1,.43.43v2a0,0,0,0,1,0,0h-.86a0,0,0,0,1,0,0v-2A.43.43,0,0,1,19,11.52Z"/><path class="cls-16" d="M21,15.92h0a.53.53,0,0,1,.53.53v2a0,0,0,0,1,0,0H20.45a0,0,0,0,1,0,0v-2a.53.53,0,0,1,.53-.53Z"/><path class="cls-16" d="M22.86,16h0a.43.43,0,0,1,.43.43v2a0,0,0,0,1,0,0h-.86a0,0,0,0,1,0,0v-2a.43.43,0,0,1,.43-.43Z"/><path class="cls-16" d="M19,16h0a.43.43,0,0,1,.43.43v2a0,0,0,0,1,0,0h-.86a0,0,0,0,1,0,0v-2A.43.43,0,0,1,19,16Z"/><path class="cls-16" d="M21,20.39h0a.53.53,0,0,1,.53.53v2a0,0,0,0,1,0,0H20.45a0,0,0,0,1,0,0v-2A.53.53,0,0,1,21,20.39Z"/><path class="cls-16" d="M22.86,20.46h0a.43.43,0,0,1,.43.43v2a0,0,0,0,1,0,0h-.86a0,0,0,0,1,0,0v-2A.43.43,0,0,1,22.86,20.46Z"/><path class="cls-16" d="M19,20.46h0a.43.43,0,0,1,.43.43v2a0,0,0,0,1,0,0h-.86a0,0,0,0,1,0,0v-2A.43.43,0,0,1,19,20.46Z"/><path class="cls-16" d="M21,24.86h0a.53.53,0,0,1,.53.53v2a0,0,0,0,1,0,0H20.45a0,0,0,0,1,0,0v-2A.53.53,0,0,1,21,24.86Z"/><path class="cls-16" d="M22.86,24.93h0a.43.43,0,0,1,.43.43v2a0,0,0,0,1,0,0h-.86a0,0,0,0,1,0,0v-2A.43.43,0,0,1,22.86,24.93Z"/><path class="cls-16" d="M19,24.93h0a.43.43,0,0,1,.43.43v2a0,0,0,0,1,0,0h-.86a0,0,0,0,1,0,0v-2A.43.43,0,0,1,19,24.93Z"/><path class="cls-16" d="M21,28.92h0a.53.53,0,0,1,.53.53v2a0,0,0,0,1,0,0H20.45a0,0,0,0,1,0,0v-2A.53.53,0,0,1,21,28.92Z"/><path class="cls-16" d="M22.86,29h0a.43.43,0,0,1,.43.43v2a0,0,0,0,1,0,0h-.86a0,0,0,0,1,0,0v-2a.43.43,0,0,1,.43-.43Z"/><path class="cls-16" d="M19,29h0a.43.43,0,0,1,.43.43v2a0,0,0,0,1,0,0h-.86a0,0,0,0,1,0,0v-2A.43.43,0,0,1,19,29Z"/><polygon class="cls-3" points="22.41 4.26 22.36 4.31 21.75 4.94 20.68 3.87 20.61 3.79 21.66 3.81 22.41 4.26"/><polygon class="cls-3" points="23.25 5.38 23.18 5.47 22.68 6.11 18.63 6.06 18.52 6.06 18.59 5.98 18.64 5.93 20.21 4.36 21.73 5.88 22.86 4.75 23.25 5.38"/><polygon class="cls-17" points="19.51 6.03 20.23 5.25 20.97 6.05 20.29 6.13 19.51 6.03"/><polygon class="cls-17" points="22.55 6.04 23.26 5.27 23.36 6.08 23.33 6.15 22.55 6.04"/><path class="cls-1" d="M22.82,4.79,21.73,5.88,20.21,4.36,18.63,5.93a2.3,2.3,0,0,1,2.05-2.06l1.06,1.07.61-.63A2.37,2.37,0,0,1,22.82,4.79Z"/><path d="M23.75,6.11h-.48a2.25,2.25,0,0,0-.09-.64,2.22,2.22,0,0,0-.36-.68,2.37,2.37,0,0,0-.47-.48A2.41,2.41,0,0,0,21,3.86h-.27a2.3,2.3,0,0,0-2.05,2.06.57.57,0,0,0,0,.13v.05h-.49a2.73,2.73,0,0,1,1.79-2.53,2.78,2.78,0,0,1,.38-.12A2.81,2.81,0,0,1,21,3.39a2.59,2.59,0,0,1,.63.07,2.38,2.38,0,0,1,.38.11A2.72,2.72,0,0,1,23.75,6.11Z"/><path d="M23.72,23.67v-4a.23.23,0,0,0,.2-.23.23.23,0,0,0-.2-.22v-4a.23.23,0,0,0,.19-.23.22.22,0,0,0-.19-.22v-4a.21.21,0,0,0,.19-.22.22.22,0,0,0-.19-.22V6.46a.23.23,0,0,0,0-.45h-5.5a.23.23,0,0,0-.23.23.23.23,0,0,0,.22.22v3.85a.24.24,0,0,0-.22.22.25.25,0,0,0,.22.23v4h-.07A.23.23,0,0,0,18,15a.25.25,0,0,0,.22.23v4a.23.23,0,0,0,0,.45v4a.22.22,0,0,0,0,.44V34.87a.22.22,0,0,0,.22.22h5.09a.22.22,0,0,0,.23-.22V24.11a.22.22,0,0,0,0-.44ZM18.62,6.46h4.65v3.85H18.62Zm0,4.3h4.65v4H18.62Zm0,4.48h4.65v4H18.62Zm4.65,19.4H18.62V31.83h4.65Zm0-3.26H18.62V24.11h4.65Zm0-7.72H18.62v-4h4.65Z"/><path class="cls-8" d="M21.58,2.51v1A2.59,2.59,0,0,0,21,3.39a2.81,2.81,0,0,0-.65.07v-1Z"/><polygon points="21.96 2.13 21.96 3.65 21.59 3.65 21.59 2.51 20.3 2.51 20.3 3.65 19.93 3.65 19.93 2.13 21.96 2.13"/><path class="cls-18" d="M20.94,2.71h0a.3.3,0,0,1,.3.3v.4a0,0,0,0,1,0,0h-.6a0,0,0,0,1,0,0V3A.3.3,0,0,1,20.94,2.71Z"/><path d="M21.94,2.13H20a1,1,0,0,1,2,0Z"/><path class="cls-19" d="M21.58,2.13H20.3a.65.65,0,0,1,1.28,0Z"/><rect x="19.69" y="2.13" width="2.5" height="0.46" rx="0.23"/><rect x="20.38" y="0.46" width="1.06" height="0.31" rx="0.15"/><rect x="20.75" width="0.33" height="1.5" rx="0.14"/><path d="M18.45,14.36V15l-.34-.22a6.09,6.09,0,0,0-6.47,0l-.39.27v-.68l.28-.16a6.77,6.77,0,0,1,3.38-.9,6.68,6.68,0,0,1,3.27.84Z"/><path class="cls-8" d="M3.88,40.6a.14.14,0,0,1-.16-.16V38a.14.14,0,0,1,.16-.16h.91a1,1,0,0,1,.67.21.9.9,0,0,1,0,1.2.93.93,0,0,1-.67.22H4v.94C4,40.55,4,40.6,3.88,40.6ZM4,39.23h.72c.42,0,.63-.18.63-.55s-.21-.55-.63-.55H4Z"/><path class="cls-8" d="M7.25,40.61a1.23,1.23,0,0,1-.65-.17A1.06,1.06,0,0,1,6.17,40,1.68,1.68,0,0,1,6,39.22a1.72,1.72,0,0,1,.15-.74A1.13,1.13,0,0,1,6.59,38a1.2,1.2,0,0,1,.66-.17,1.16,1.16,0,0,1,.66.17,1.09,1.09,0,0,1,.43.47,1.68,1.68,0,0,1,.16.74,1.72,1.72,0,0,1-.16.74,1.11,1.11,0,0,1-.43.48A1.24,1.24,0,0,1,7.25,40.61Zm0-.28A.81.81,0,0,0,7.92,40a1.27,1.27,0,0,0,.24-.82,1.22,1.22,0,0,0-.24-.81.79.79,0,0,0-.67-.29.79.79,0,0,0-.66.29,1.22,1.22,0,0,0-.24.81,1.27,1.27,0,0,0,.24.82A.82.82,0,0,0,7.25,40.33Z"/><path class="cls-8" d="M9.22,40.6a.14.14,0,0,1-.16-.16V38a.14.14,0,0,1,.16-.16h.91a1,1,0,0,1,.67.2.75.75,0,0,1,.23.58.71.71,0,0,1-.16.49.72.72,0,0,1-.46.25.66.66,0,0,1,.3.3l.37.69a.16.16,0,0,1,0,.15.11.11,0,0,1-.12.07.2.2,0,0,1-.11,0,.22.22,0,0,1-.07-.09l-.42-.77a.54.54,0,0,0-.2-.22.68.68,0,0,0-.31-.06H9.37v1C9.37,40.55,9.32,40.6,9.22,40.6Zm.15-1.42h.71c.43,0,.64-.17.64-.53s-.21-.52-.64-.52H9.37Z"/><path class="cls-8" d="M12.37,40.6a.14.14,0,0,1-.16-.16v-2.3h-.86c-.1,0-.15,0-.15-.13s.05-.14.15-.14h2c.1,0,.15.05.15.14s0,.13-.15.13h-.86v2.3A.14.14,0,0,1,12.37,40.6Z"/><path class="cls-8" d="M14.83,40.61a1.27,1.27,0,0,1-.66-.17,1.12,1.12,0,0,1-.43-.48,1.68,1.68,0,0,1-.15-.74,1.72,1.72,0,0,1,.15-.74,1.09,1.09,0,0,1,.43-.47,1.16,1.16,0,0,1,.66-.17,1.2,1.2,0,0,1,.66.17,1.15,1.15,0,0,1,.43.47,1.68,1.68,0,0,1,.15.74,1.58,1.58,0,0,1-.16.74,1.11,1.11,0,0,1-.43.48A1.23,1.23,0,0,1,14.83,40.61Zm0-.28A.84.84,0,0,0,15.5,40a1.27,1.27,0,0,0,.23-.82,1.22,1.22,0,0,0-.23-.81.81.81,0,0,0-.67-.29.8.8,0,0,0-.67.29,1.22,1.22,0,0,0-.24.81,1.27,1.27,0,0,0,.24.82A.83.83,0,0,0,14.83,40.33Z"/><path class="cls-8" d="M17.56,40.6a.19.19,0,0,1-.19-.14l-1.06-2.41a.16.16,0,0,1,0-.15.14.14,0,0,1,.12-.06.16.16,0,0,1,.11,0,.2.2,0,0,1,.06.09l.95,2.21,1-2.21a.22.22,0,0,1,.07-.09.12.12,0,0,1,.11,0,.11.11,0,0,1,.11.06.14.14,0,0,1,0,.15l-1.05,2.41a.35.35,0,0,1-.07.11A.21.21,0,0,1,17.56,40.6Z"/><path class="cls-8" d="M19.37,40.6a.14.14,0,0,1-.16-.16V38a.15.15,0,0,1,.16-.17c.11,0,.16.06.16.17v2.43A.14.14,0,0,1,19.37,40.6Z"/><path class="cls-8" d="M20.37,40.58c-.11,0-.17-.06-.17-.18V38a.15.15,0,0,1,.17-.17H21.8c.09,0,.13,0,.13.13s0,.14-.13.14H20.51v.93h1.21a.12.12,0,0,1,.13.13c0,.09,0,.14-.13.14H20.51v1H21.8c.09,0,.13,0,.13.13s0,.14-.13.14Z"/><path class="cls-8" d="M22.23,40.6a.16.16,0,0,1-.12,0,.18.18,0,0,1,0-.1.16.16,0,0,1,0-.09.19.19,0,0,1,.09,0h.12a.42.42,0,0,0,.3-.13.49.49,0,0,0,.1-.34V38a.15.15,0,0,1,.16-.17c.11,0,.16.06.16.17v1.85a.73.73,0,0,1-.18.52.75.75,0,0,1-.5.21Z"/><path class="cls-8" d="M24.83,40.61a1.23,1.23,0,0,1-.65-.17,1.06,1.06,0,0,1-.43-.48,1.68,1.68,0,0,1-.16-.74,1.72,1.72,0,0,1,.15-.74,1.15,1.15,0,0,1,.43-.47,1.2,1.2,0,0,1,.66-.17,1.16,1.16,0,0,1,.66.17,1.09,1.09,0,0,1,.43.47,1.68,1.68,0,0,1,.15.74,1.72,1.72,0,0,1-.15.74,1.18,1.18,0,0,1-.43.48A1.3,1.3,0,0,1,24.83,40.61Zm0-.28A.83.83,0,0,0,25.5,40a1.27,1.27,0,0,0,.24-.82,1.22,1.22,0,0,0-.24-.81.91.91,0,0,0-1.33,0,1.22,1.22,0,0,0-.24.81,1.27,1.27,0,0,0,.24.82A.82.82,0,0,0,24.83,40.33Z"/></g></g></svg>