<svg xmlns="http://www.w3.org/2000/svg" viewBox="0 0 900 900"><defs><style>.cls-1{fill:#fff;}.cls-2{fill:#ffbe1d;}.cls-3{fill:#f4c6a4;}.cls-4{fill:#5cd6b3;}.cls-5{fill:#ad5d21;}.cls-6{fill:#f43b5f;}.cls-7{fill:#6bd4f9;}.cls-8{fill:#d67f30;}.cls-9{fill:#db4b58;}.cls-10{fill:#4dccef;}.cls-11{fill:#30579d;}</style></defs><title>Recurso 3</title><g id="Capa_2" data-name="Capa 2"><g id="medidasBioseguridad"><rect class="cls-1" width="900" height="900"/><path class="cls-2" d="M187.45,540.65H64.85a5.14,5.14,0,0,0,2.92-4.73c.1-3.24,0-6.46,0-9.7,0-8.8,4.21-14.53,12.55-17.16,9.33-2.94,18.72-5.69,28-8.82,2.82-.95,4.29-.33,6.1,1.91C132.43,524.52,159.37,538.09,187.45,540.65Z"/><path class="cls-2" d="M328.64,540.65H206.79a101.74,101.74,0,0,0,22.5-4.65,106.72,106.72,0,0,0,50.48-34.64c1.05-1.27,1.92-2.22,3.85-1.59,10.37,3.35,20.81,6.47,31.15,9.9a16,16,0,0,1,10.91,14.94c.11,3.57,0,7.13,0,10.69C325.76,537.92,326.87,539.85,328.64,540.65Z"/><path d="M328.64,540.65a4.71,4.71,0,0,0,2.14.43,5,5,0,0,0,2-.43Zm-121.85,0H187.45A105,105,0,0,0,206.79,540.65Zm-144,.43a4.7,4.7,0,0,0,2.06-.43H60.77A5,5,0,0,0,62.79,541.08Z"/><path d="M335.74,526.44c-.05-13.48-6.85-22.87-19.68-26.92q-26.38-8.34-52.82-16.56c-9.3-2.91-13.17-8.14-13.2-18,0-2.77.09-27.35,0-33.65a86,86,0,0,0,29.87-47.79c.63-2.68.33-6.36,2-7.82s5.26-.66,8-.92a20.92,20.92,0,0,0,18.16-15,20.29,20.29,0,0,0-7.21-22.07,5.94,5.94,0,0,1-2.66-5.51c.07-24.84.14-49.68,0-74.51a58.52,58.52,0,0,0-38.58-55.24c-4.34-1.59-8.95-2.41-13.43-3.58H166c-7,1.79-13.66,4.58-17.18,11-2.58,4.74-5.83,5.64-10.41,5a1.82,1.82,0,0,0-.33,0,42.62,42.62,0,0,0-42.81,42.6c-.12,19.54,0,58.14,0,78.23a21.49,21.49,0,0,0-10.64,16.59,20.8,20.8,0,0,0,14.6,21.49,39.62,39.62,0,0,0,9.88,1.11c2.13.07,3.11.5,3.47,2.85a83.44,83.44,0,0,0,28.79,51.63,5.6,5.6,0,0,1,2.14,4.84c-.08,10.25,0,20.5,0,30.75,0,9.76-3.91,15-13.25,17.92-17.83,5.57-35.68,11.06-53.46,16.74-10.92,3.49-17.3,11.11-18.73,22.46a92.21,92.21,0,0,0-.18,14,4.87,4.87,0,0,0,2.92,4.46h4.08a5.14,5.14,0,0,0,2.92-4.73c.1-3.24,0-6.46,0-9.7,0-8.8,4.21-14.53,12.55-17.16,9.33-2.94,18.72-5.69,28-8.82,2.82-.95,4.29-.33,6.1,1.91,18,22.37,44.93,35.94,73,38.5h19.34a101.74,101.74,0,0,0,22.5-4.65,106.72,106.72,0,0,0,50.48-34.64c1.05-1.27,1.92-2.22,3.85-1.59,10.37,3.35,20.81,6.47,31.15,9.9a16,16,0,0,1,10.91,14.94c.11,3.57,0,7.13,0,10.69,0,2.62,1.15,4.55,2.92,5.35h4.11c1.77-.79,2.9-2.65,3-5.18C335.8,532.46,335.75,529.45,335.74,526.44ZM298.36,357.13c-1.39,4.28-4.29,7.09-8.8,7.58a79.24,79.24,0,0,1-9.06.07c.78-7.21,1.56-14.28,2.38-21.79,4.51-.53,9.22-.23,13,3.69A9.86,9.86,0,0,1,298.36,357.13Zm-195.19,7.46c-4.74-.72-8.33-5.27-8.57-10.19a11.1,11.1,0,0,1,8.53-11,50.11,50.11,0,0,1,7.52-.7c.8,7.61,1.55,14.7,2.36,22.38A88.19,88.19,0,0,1,103.17,364.59Zm7.18-31.79c-1.69.05-3.38.08-5.07.18,0-6.18,0-17.88,0-18.55,0-18.71-.06-37.43,0-56.14.07-16.09,10.29-29.36,25.52-32.37,5.71-1.13,11.74-.75,17.62-.9,2.93-.08,4.74-1.24,5.78-4,3.19-8.58,8.33-12,17.5-12q33.08,0,66.15,0c29.24,0,50.33,21.08,50.34,50.36q0,34.74,0,69.5v3.51c-10.69,2.29-17.42-3.23-16.85-13.07.46-7.87.19-15.81.07-23.71-.19-13.25-8.86-23.83-20.83-26.39l-.19-.05a20.9,20.9,0,0,0-4.24-.56c-23.62,0-72.18,0-95.79,0-17.21,0-28.33,11.23-28.35,28.53,0,8,0,16,0,24.06C122,328.35,117.63,332.61,110.35,332.8Zm11.08,9.47a4.85,4.85,0,0,1,1.7-3.18,21.64,21.64,0,0,0,9-18.46c-.11-7.8,0-15.59,0-23.39,0-12.16,6.6-18.71,18.84-18.71h94.32l.22,0c9.93,1,15.91,7.54,16,17.54.06,8.13.1,16.26,0,24.39-.11,7.82,2.81,14,9.1,18.71a4.33,4.33,0,0,1,1.56,2.91c.17,3.89.17,7.8,0,11.69-.22,6.36-4.33,10.58-10.64,11.15-1.11.1-2.22.1-3.33.1H135.53c-1.12,0-2.24,0-3.34-.09-6.5-.54-10.62-4.8-10.81-11.32C121.27,349.84,121.23,346.05,121.43,342.27Zm2.34,40.7c-.36-2.48-1-4.93-1.55-7.69H271.37a87.65,87.65,0,0,1-2.3,9.59c-.28.81-2.21,1.47-3.38,1.48-20.15.09-40.31.07-60.46.07H177.84a19.26,19.26,0,0,0-3.65.24,4.89,4.89,0,0,0-.23,9.46,16.51,16.51,0,0,0,4,.31q36.41,0,72.82,0h4.36c-25.15,20.43-84.56,23.67-116.3,0h6.64c2.67,0,5.34.08,8,0,3.44-.15,5.4-2.1,5.32-5.11s-1.91-4.77-5.27-4.81c-8.47-.12-16.93-.2-25.39,0C125.3,386.58,124.14,385.62,123.77,383Zm11.7,25q61.34,30.86,122.12.24c-4.14,12.23-31,28.72-51.44,31.2C175.89,443.11,149,428.16,135.47,408Zm18.08,55.74c-.23-7.34-.06-14.71,0-22.06,0-.92.15-1.86.26-3.14,1.47.73,2.56,1.25,3.62,1.81a81.41,81.41,0,0,0,29.16,9A86,86,0,0,0,240,438.25c0,10.21,0,26.59.07,29.34A25.64,25.64,0,0,0,248,485.77c.59.59,1.13,1.24,1.69,1.85-32.17,32.46-82.66,26-105.82-.41C151.16,481.07,153.84,473.08,153.55,463.74ZM122.88,496.3c7-4.49,12-3.19,18.43,2.48,33.7,29.65,84.14,27.47,115.82-4.28,1.77-1.77,3.24-2.18,5.47-1.31,2.68,1,5.45,1.8,8.24,2.7C234.79,542.24,160.37,543.05,122.88,496.3Z"/><path class="cls-3" d="M249.72,487.62c-32.17,32.46-82.66,26-105.82-.41,7.26-6.14,9.94-14.13,9.65-23.47-.23-7.34-.06-14.71,0-22.06,0-.92.15-1.86.26-3.14,1.47.73,2.56,1.25,3.62,1.81a81.41,81.41,0,0,0,29.16,9A86,86,0,0,0,240,438.25c0,10.21,0,26.59.07,29.34A25.64,25.64,0,0,0,248,485.77C248.62,486.36,249.16,487,249.72,487.62Z"/><path class="cls-4" d="M257.59,408.24c-4.14,12.23-31,28.72-51.44,31.2C175.89,443.11,149,428.16,135.47,408Q196.81,438.86,257.59,408.24Z"/><path class="cls-4" d="M271.37,375.28a87.65,87.65,0,0,1-2.3,9.59c-.28.81-2.21,1.47-3.38,1.48-20.15.09-40.31.07-60.46.07H177.84a19.26,19.26,0,0,0-3.65.24,4.89,4.89,0,0,0-.23,9.46,16.51,16.51,0,0,0,4,.31q36.41,0,72.82,0h4.36c-25.15,20.43-84.56,23.67-116.3,0h6.64c2.67,0,5.34.08,8,0,3.44-.15,5.4-2.1,5.32-5.11s-1.91-4.77-5.27-4.81c-8.47-.12-16.93-.2-25.39,0-2.84.08-4-.88-4.37-3.53-.36-2.48-1-4.93-1.55-7.69Z"/><path class="cls-3" d="M298.36,357.13c-1.39,4.28-4.29,7.09-8.8,7.58a79.24,79.24,0,0,1-9.06.07c.78-7.21,1.56-14.28,2.38-21.79,4.51-.53,9.22-.23,13,3.69A9.86,9.86,0,0,1,298.36,357.13Z"/><path class="cls-3" d="M113,365.1a88.19,88.19,0,0,1-9.84-.51c-4.74-.72-8.33-5.27-8.57-10.19a11.1,11.1,0,0,1,8.53-11,50.11,50.11,0,0,1,7.52-.7C111.45,350.33,112.2,357.42,113,365.1Z"/><path class="cls-3" d="M272.09,342.09a4.33,4.33,0,0,0-1.56-2.91c-6.29-4.69-9.21-10.89-9.1-18.71.11-8.13.07-16.26,0-24.39-.08-10-6.06-16.51-16-17.54l-.22,0H150.91c-12.24,0-18.83,6.55-18.84,18.71,0,7.8-.09,15.59,0,23.39a21.64,21.64,0,0,1-9,18.46,4.85,4.85,0,0,0-1.7,3.18c-.2,3.78-.16,7.57-.05,11.35.19,6.52,4.31,10.78,10.81,11.32,1.1.09,2.22.09,3.34.09H258.16c1.11,0,2.22,0,3.33-.1,6.31-.57,10.42-4.79,10.64-11.15C272.26,349.89,272.26,346,272.09,342.09Zm-102.65,7.26a4.46,4.46,0,0,1-4.49,4.09c-2.67.16-4.62-1.1-5.09-3.75a27.55,27.55,0,0,1-.2-6.61,4.88,4.88,0,0,1,4.94-4.83c2.79,0,4.73,2,4.94,5.12.07.89,0,1.78,0,2.67h.07A30.32,30.32,0,0,1,169.44,349.35Zm1.83-20.22c-8,.39-16,.38-23,.51-3.58-.85-5-2.49-5-5.19s1.62-4.61,4.26-4.71c7.77-.28,15.55-.39,23.32-.28,2.6.05,4.26,2,4.33,4.66S173.93,329,171.27,329.13Zm62.18,20.56c-.46,2.65-2.4,3.91-5.08,3.75a4.46,4.46,0,0,1-4.49-4.09,30.32,30.32,0,0,1-.18-3.31h.07c0-.89-.06-1.78,0-2.67.22-3.15,2.15-5.13,4.95-5.12a4.9,4.9,0,0,1,4.94,4.83A27.56,27.56,0,0,1,233.45,349.69Zm11.64-20.05c-7.06-.13-15.06-.12-23-.51-2.66-.13-4-2.38-3.91-5s1.72-4.61,4.32-4.66c7.77-.11,15.56,0,23.32.28,2.65.1,4.2,2,4.26,4.71S248.67,328.79,245.09,329.64Z"/><path class="cls-5" d="M288.23,328.79v3.51c-10.69,2.29-17.42-3.23-16.85-13.07.46-7.87.19-15.81.07-23.71-.19-13.25-8.86-23.83-20.83-26.39l-.19-.05a20.9,20.9,0,0,0-4.24-.56c-23.62,0-72.18,0-95.79,0-17.21,0-28.33,11.23-28.35,28.53,0,8,0,16,0,24.06-.06,7.26-4.39,11.52-11.67,11.71-1.69.05-3.38.08-5.07.18,0-6.18,0-17.88,0-18.55,0-18.71-.06-37.43,0-56.14.07-16.09,10.29-29.36,25.52-32.37,5.71-1.13,11.74-.75,17.62-.9,2.93-.08,4.74-1.24,5.78-4,3.19-8.58,8.33-12,17.5-12q33.08,0,66.15,0c29.24,0,50.33,21.08,50.34,50.36Q288.27,294,288.23,328.79Z"/><path class="cls-6" d="M270.84,495.89c-36,46.35-110.47,47.16-148,.41,7-4.49,12-3.19,18.43,2.48,33.7,29.65,84.14,27.47,115.82-4.28,1.77-1.77,3.24-2.18,5.47-1.31C265.28,494.23,268.05,495,270.84,495.89Z"/><path d="M175.19,324.12c.06,2.63-1.26,4.88-3.92,5-8,.39-16,.38-23,.51-3.58-.85-5-2.49-5-5.19s1.62-4.61,4.26-4.71c7.77-.28,15.55-.39,23.32-.28C173.46,319.51,175.12,321.41,175.19,324.12Z"/><path d="M169.62,346a30.32,30.32,0,0,1-.18,3.31,4.46,4.46,0,0,1-4.49,4.09c-2.67.16-4.62-1.1-5.09-3.75a27.55,27.55,0,0,1-.2-6.61,4.88,4.88,0,0,1,4.94-4.83c2.79,0,4.73,2,4.94,5.12.07.89,0,1.78,0,2.67Z"/><path d="M250,324.45c.07,2.7-1.37,4.34-4.95,5.19-7.06-.13-15.06-.12-23-.51-2.66-.13-4-2.38-3.91-5s1.72-4.61,4.32-4.66c7.77-.11,15.56,0,23.32.28C248.43,319.84,250,321.75,250,324.45Z"/><path d="M233.45,349.69c-.46,2.65-2.4,3.91-5.08,3.75a4.46,4.46,0,0,1-4.49-4.09,30.32,30.32,0,0,1-.18-3.31h.07c0-.89-.06-1.78,0-2.67.22-3.15,2.15-5.13,4.95-5.12a4.9,4.9,0,0,1,4.94,4.83A27.56,27.56,0,0,1,233.45,349.69Z"/><path d="M581.52,354.22a44.54,44.54,0,0,0-2.27-14.34c-4.31-12.65-14.6-21.36-29.45-24.45-.58-.12-1.14-.33-1.82-.53,13.65-16.54,9-35.1-1.28-45a32,32,0,0,0-42.18-2,30.85,30.85,0,0,0-11.55,19c-1.93,10.5.92,19.82,8.1,28.12l-4,.79c-16.24,3.28-29.28,17.88-29.59,34.38q-.12,6.12-.17,12.25c-.15,14.64-.09,29.3,0,43.95,0,3.9.06,7.81.08,11.71a14.92,14.92,0,0,0,7.06,12.49,16,16,0,0,0,8.68,2.49c1.82,0,3.65-.34,5.76-.55v4.13c0,22.31,0,44.61,0,66.9,0,4,0,7.47-3.79,10.46s-2.82,8.1-3.06,12.54c-.4,7.24,2.44,12.24,9.33,14.79H557.7c6.72-2.79,9.65-7.8,8.9-15-.18-1.77,0-3.57-.08-5.36a10.4,10.4,0,0,0-4.65-8.8c-1.81-1.21-2.1-2.56-2.08-4.46.05-7.84.05-39,0-55.77,0-.21,0-.41,0-.62,0-2.68,0-5.35,0-8v-10.9c13.7,2.53,21.71-4.15,21.72-17.58C581.54,394.59,581.58,374.41,581.52,354.22Zm-57.09-83.28a21.91,21.91,0,0,1,22,22.17c0,.43,0,.85,0,1.27a21.76,21.76,0,0,1-2.53,8.92,21.92,21.92,0,0,1-38.77,0,21.51,21.51,0,0,1-2.6-8.92c0-.55-.05-1.09,0-1.64A22.08,22.08,0,0,1,524.43,270.94ZM488.88,417.52c-.28,3.3-2.44,5.43-5.55,5.49a5.49,5.49,0,0,1-5.88-5.52c-.09-15.13,0-30.26,0-45.71h11.21a20,20,0,0,1,.29,2.33q0,21,0,42.08A11.83,11.83,0,0,1,488.88,417.52Zm30.41,113.4a9.2,9.2,0,0,1-1.78.35c-7.33,0-14.67-.06-22,.05-2.47,0-3.36-1-3.32-3.35.15-9.7-1.06-8.12,8-8.21,6.3-.08,12.59,0,19.06,0Zm-3.85-95.5a4.52,4.52,0,0,0-4.7,5c.1,2.92,1.75,4.47,4.55,4.85,1.29.18,2.6.2,3.89.3v63.93H499.24v-87h50.54v3.2c0,6.35,0,12.68,0,19v.68c0,9.77,0,41.64,0,45.22V509.5H529.69v-64c1.27-.06,2.37-.07,3.48-.18,3.1-.31,5.15-2.42,5.05-5.15a4.88,4.88,0,0,0-5.05-4.75C527.26,435.25,521.35,435.24,515.44,435.42Zm32.89,95.85c-6.1.1-12.22,0-18.7,0V519.89c1.09,0,2.15-.14,3.2-.14,6.9,0,13.8,0,20.68,0,2.08,0,3.07.67,3,2.87C556.41,533.16,557.72,531.12,548.33,531.27Zm11.48-177c0-3.9-1.94-6.22-5-6.19s-5,2.38-5,6.25q0,26.75,0,53.5V412H499V356.37c0-1,0-2,0-3-.17-3.15-2.13-5.25-4.88-5.29a5.12,5.12,0,0,0-5.07,5.16c-.16,2.64,0,5.29,0,8.14H477.77a38.74,38.74,0,0,1-.1-12.79c0-.3.1-.59.16-.9a.52.52,0,0,0,0-.11c0-.29.11-.56.18-.83s.16-.7.25-1.05.18-.68.29-1a25.79,25.79,0,0,1,.91-2.6,5.48,5.48,0,0,1,.23-.56c.24-.56.5-1.13.78-1.67.18-.36.37-.72.57-1.06s.42-.73.64-1.07c.37-.59.76-1.17,1.18-1.73.22-.31.45-.61.7-.91s.38-.46.58-.69l.33-.38.5-.52.09-.1c.53-.55,1.08-1.07,1.66-1.57a27.2,27.2,0,0,1,2.4-1.84c.27-.19.54-.36.82-.53s.86-.53,1.32-.77c.22-.13.44-.25.67-.36a.12.12,0,0,1,.09,0,5.39,5.39,0,0,1,.68-.34c.32-.16.64-.31,1-.45a27.06,27.06,0,0,1,10-2.29c13.81-.25,27.64-.3,41.46-.06.42,0,.83,0,1.25.06s.84.06,1.26.11.83.1,1.24.17a26,26,0,0,1,7.47,2.41c.26.13.52.26.77.4a.47.47,0,0,1,.12.07c.24.12.49.26.72.4l0,0c.34.2.67.4,1,.61l0,0c.31.2.61.41.91.63s.46.32.68.5l.47.36c.23.18.46.36.68.57l.25.2c.18.15.36.32.54.49a6.51,6.51,0,0,1,.54.51l.63.63c.25.26.5.52.73.8s.32.36.47.54c0,0,0,0,0,0,.18.2.35.42.52.63.37.48.72,1,1.06,1.45l.5.75.45.74c.32.53.63,1.08.9,1.63.09.18.18.36.26.55a4.64,4.64,0,0,1,.26.55l.16.37c.15.32.27.63.39.95s.21.55.31.83a1.06,1.06,0,0,1,.06.19c.08.21.14.43.21.64a27.05,27.05,0,0,1,1,4.34c.06.42.11.84.14,1.26.34,3.84.06,7.74.06,11.8H559.81C559.81,358.89,559.83,356.58,559.81,354.27Zm11.68,61.53c0,4.22-1.6,6.54-4.64,7.11-3.59.67-6.89-1.58-6.93-5.39-.16-15.13-.07-30.25-.07-45.74h11.31a20.85,20.85,0,0,1,.32,2.61Q571.51,395.09,571.49,415.8Z"/><path class="cls-7" d="M548.33,531.27c-6.1.1-12.22,0-18.7,0V519.89c1.09,0,2.15-.14,3.2-.14,6.9,0,13.8,0,20.68,0,2.08,0,3.07.67,3,2.87C556.41,533.16,557.72,531.12,548.33,531.27Z"/><path class="cls-8" d="M549.78,425.72c0,6.35,0,12.68,0,19v.68c0,9.77,0,41.64,0,45.22V509.5H529.69v-64c1.27-.06,2.37-.07,3.48-.18,3.1-.31,5.15-2.42,5.05-5.15a4.88,4.88,0,0,0-5.05-4.75c-5.91-.14-11.82-.15-17.73,0a4.52,4.52,0,0,0-4.7,5c.1,2.92,1.75,4.47,4.55,4.85,1.29.18,2.6.2,3.89.3v63.93H499.24v-87h50.54Z"/><path class="cls-3" d="M488.93,416.19a11.83,11.83,0,0,1-.05,1.33c-.28,3.3-2.44,5.43-5.55,5.49a5.49,5.49,0,0,1-5.88-5.52c-.09-15.13,0-30.26,0-45.71h11.21a20,20,0,0,1,.29,2.33Q488.94,395.16,488.93,416.19Z"/><path class="cls-7" d="M571.25,361.39H559.81c0-2.5,0-4.81,0-7.12,0-3.9-1.94-6.22-5-6.19s-5,2.38-5,6.25q0,26.75,0,53.5V412H499V356.37c0-1,0-2,0-3-.17-3.15-2.13-5.25-4.88-5.29a5.12,5.12,0,0,0-5.07,5.16c-.16,2.64,0,5.29,0,8.14H477.77c-2.57-15.45,3.47-28.52,15.92-33.89a27.06,27.06,0,0,1,10-2.29c13.81-.25,27.64-.3,41.46-.06a26.82,26.82,0,0,1,26.05,24.45C571.53,353.43,571.25,357.33,571.25,361.39Z"/><path class="cls-4" d="M543.8,303.3a21.92,21.92,0,0,1-38.77,0Z"/><path class="cls-3" d="M546.38,293.11c0,.43,0,.85,0,1.27a21.76,21.76,0,0,1-2.53,8.92H505a21.51,21.51,0,0,1-2.6-8.92c0-.55-.05-1.09,0-1.64a22,22,0,0,1,44,.37Z"/><path d="M809.44,346.35c-3.32-16.62-14.17-27.52-30.68-30.82-.7-.14-1.39-.37-2.19-.59,14.55-18.08,7.76-37.2-2.56-46.15a32.08,32.08,0,0,0-42.22.12c-13.4,11.85-14.34,28.38-2.5,46.06-.89.22-1.71.45-2.55.63-16.21,3.52-27,13.25-29.84,29.52-1.39,8.14-1.14,37.9-1,56a171.83,171.83,0,0,0,.31,18.86c.66,7.2,7.13,12.75,14.33,13.05a66.13,66.13,0,0,0,7-.46v3.87q0,33.63,0,67.25c0,3.86.4,7.48-3.71,10.17-1.75,1.13-2.31,4.38-2.92,6.79-.46,1.79,0,3.79-.17,5.67-.75,7.23,2.17,12.25,8.89,15h66.26c6.9-2.54,9.54-7.55,9.37-14.79-.15-6.1-.26-11.86-6.25-15.55-.61-.38-.58-2-.59-3.09,0-7.86,0-42.16,0-57.4,0-2.33,0-4.66,0-7v-.35c0-3.57,0-7.15,0-10.83,6.42,1.55,12.21,1,16.67-3.7,2-2.18,3.29-5.13,4.91-7.74V347.92A11.3,11.3,0,0,1,809.44,346.35Zm-56.38-75.41a22,22,0,1,1-19.5,32.36,21.59,21.59,0,0,1-2.35-7.14A20.92,20.92,0,0,1,731,293,21.92,21.92,0,0,1,753.06,270.94ZM717.41,417.58a5.63,5.63,0,0,1-8.24,4.91c-2.5-1.25-3.31-3.47-3.31-6.1,0-3.08,0-6.16,0-9.23.08-10.94.1-33.92.17-35.28h11.44C717.49,387.28,717.61,402.44,717.41,417.58Zm30.32,113.67c-8.43,0-16.82.69-25-.3-4.07-.49-1.15-5.49-1.84-8.36-.39-1.57.27-2.84,2.27-2.83h24.57Zm-4.37-95.74c-2.69.1-4.16,2.15-4.18,4.79a4.61,4.61,0,0,0,4.16,4.86c1.31.23,2.65.21,4.24.34v63.95H727.84v-87h50.55v3.62c0,7.9,0,15.82,0,23.72,0,16,0,48.07,0,55.65v3.93H758.11V445.54c1.58-.13,3-.13,4.44-.39a4.53,4.53,0,0,0,4.06-4.91c0-2.72-1.51-4.65-4.2-4.74Q752.9,435.2,743.36,435.51ZM785,528.59c.12.74-1.54,2.55-2.41,2.57-8.08.21-16.18.12-24.48.12V519.76h24.61a1.24,1.24,0,0,1,.65.07C787,522.11,784.5,525.66,785,528.59Zm-1.57-180.51c-3.14-.06-5,2.32-5,6.49q0,26.6,0,53.17V412H727.58V408.3q0-26.26,0-52.51a15.83,15.83,0,0,0-.21-3.65c-.6-2.59-2.38-4.14-5-4a4.57,4.57,0,0,0-4.72,4.67c-.13,2.75,0,5.53,0,8.61H706.42c-4.83-18.45,8.25-36.08,27-36.34q19.56-.27,39.13,0c15.68.21,27.25,12,27.4,27.74,0,2.77,0,5.53,0,8.53H788.42c0-2.27,0-4.47,0-6.65C788.37,350.54,786.53,348.13,783.42,348.08Zm16.52,68.28c0,4.22-2.23,6.67-5.81,6.66s-5.67-2.37-5.68-6.39c-.05-14.24,0-28.48,0-42.73a18.17,18.17,0,0,1,.27-2.07H800V389C800,398.12,800,407.24,799.94,416.36Z"/><path class="cls-4" d="M772.31,303.3a21.9,21.9,0,0,1-38.75,0Z"/><path class="cls-3" d="M775,292.9a21.52,21.52,0,0,1-2.65,10.4H733.56a21.59,21.59,0,0,1-2.35-7.14A20.92,20.92,0,0,1,731,293a22,22,0,1,1,44-.07Z"/><path class="cls-3" d="M799.94,416.36c0,4.22-2.23,6.67-5.81,6.66s-5.67-2.37-5.68-6.39c-.05-14.24,0-28.48,0-42.73a18.17,18.17,0,0,1,.27-2.07H800V389C800,398.12,800,407.24,799.94,416.36Z"/><path class="cls-3" d="M717.41,417.58a5.63,5.63,0,0,1-8.24,4.91c-2.5-1.25-3.31-3.47-3.31-6.1,0-3.08,0-6.16,0-9.23.08-10.94.1-33.92.17-35.28h11.44C717.49,387.28,717.61,402.44,717.41,417.58Z"/><path class="cls-9" d="M800,361.36H788.42c0-2.27,0-4.47,0-6.65,0-4.17-1.89-6.58-5-6.63s-5,2.32-5,6.49q0,26.6,0,53.17V412H727.58V408.3q0-26.26,0-52.51a15.83,15.83,0,0,0-.21-3.65c-.6-2.59-2.38-4.14-5-4a4.57,4.57,0,0,0-4.72,4.67c-.13,2.75,0,5.53,0,8.61H706.42c-4.83-18.45,8.25-36.08,27-36.34q19.56-.27,39.13,0c15.68.21,27.25,12,27.4,27.74C800,355.6,800,358.36,800,361.36Z"/><path class="cls-10" d="M778.39,426.11c0,7.9,0,15.82,0,23.72,0,16,0,48.07,0,55.65v3.93H758.11V445.54c1.58-.13,3-.13,4.44-.39a4.53,4.53,0,0,0,4.06-4.91c0-2.72-1.51-4.65-4.2-4.74q-9.51-.3-19,0c-2.69.1-4.16,2.15-4.18,4.79a4.61,4.61,0,0,0,4.16,4.86c1.31.23,2.65.21,4.24.34v63.95H727.84v-87h50.55Z"/><path class="cls-11" d="M785,528.59c.12.74-1.54,2.55-2.41,2.57-8.08.21-16.18.12-24.48.12V519.76h24.61a1.24,1.24,0,0,1,.65.07C787,522.11,784.5,525.66,785,528.59Z"/><path class="cls-11" d="M747.73,519.76v11.49c-8.43,0-16.82.69-25-.3-4.07-.49-1.15-5.49-1.84-8.36-.39-1.57.27-2.84,2.27-2.83Z"/><path d="M676.82,198.68a8.78,8.78,0,0,1,4.47,6.61c2.4,13,5,26,7.43,39.05.73,3.88-.66,6.52-3.65,7.15-3.15.67-5.48-1.31-6.25-5.32-1.42-7.41-2.84-14.82-5-22.38-.34,1.06-.71,2.11-1,3.19q-2.7,9.47-5.39,18.94c-1.16,4.07-3.11,6-6.14,6.05s-5.15-1.82-6.33-5.81c-1.91-6.4-3.76-12.82-5.65-19.23a6.67,6.67,0,0,0-1.69-3L644,243.65c-.22,1.2-.4,2.42-.68,3.61-.73,3.07-3,4.72-5.8,4.26s-4.59-3.07-4-6.27c2-11.29,4.07-22.58,6.12-33.86.35-2,.81-3.94,1-5.93a7.82,7.82,0,0,1,4.67-6.78h3.35a51.81,51.81,0,0,1,4.41,5.88c.9,1.6,1.1,3.58,1.64,5.39,2,6.82,4.05,13.63,6.36,21.4,2.67-9.3,4.9-17.65,7.54-25.87.79-2.45,2.73-4.54,4.14-6.8Z"/><path d="M607.22,198.68c4.33,1.65,8.23,3.84,10.6,8.09,3.08,5.52,2.58,11-.51,16.21-3.19,5.34-6.9,10.37-10.39,15.54-.66,1-1.36,1.91-2.4,3.37,4.18,0,7.7,0,11.21,0,3.7.06,5.87,1.93,5.89,4.94s-2.15,5-5.83,5c-6.13.11-12.26.1-18.39,0-2.8,0-5.66-.13-7.09-3.28-1.36-3,.37-5.11,2-7.28,4.33-5.93,8.74-11.82,13-17.83a39.27,39.27,0,0,0,3.94-6.94,5.35,5.35,0,0,0-3-7.39,5.71,5.71,0,0,0-7.52,3c-2.28,4.88-4.41,6.2-7.5,4.63s-3.55-4.87-1.38-9.38,6.28-7,10.76-8.83Z"/><path d="M691.58,286.88c-2.43-2.27-4.92-4.48-7.26-6.84-2.5-2.52-2.65-5.22-.61-7.41s5-2.2,7.64.36q8,7.85,15.85,15.84c2.71,2.75,2.74,5.45.07,8.17q-7.85,8-15.85,15.84c-2.57,2.52-5.58,2.61-7.67.41s-1.91-4.86.55-7.4,4.83-4.79,7.83-7.74H586.2l-.86,1c2.49,2.14,5.09,4.18,7.45,6.46,2.83,2.73,2.94,5.67.59,7.86s-5,1.8-7.67-.84Q578,305,570.35,297.25c-3-3-3-5.58,0-8.63q7.64-7.74,15.36-15.38c2.8-2.76,5.69-2.95,7.89-.63s1.9,5-.79,7.67c-2.26,2.27-4.67,4.42-7.69,7.26H691.08Z"/><path class="cls-3" d="M571.49,415.8c0,4.22-1.6,6.54-4.64,7.11-3.59.67-6.89-1.58-6.93-5.39-.16-15.13-.07-30.25-.07-45.74h11.31a20.85,20.85,0,0,1,.32,2.61Q571.51,395.09,571.49,415.8Z"/><path class="cls-7" d="M519.29,519.74v11.18a9.2,9.2,0,0,1-1.78.35c-7.33,0-14.67-.06-22,.05-2.47,0-3.36-1-3.32-3.35.15-9.7-1.06-8.12,8-8.21C506.53,519.68,512.82,519.74,519.29,519.74Z"/><rect x="501.53" y="296.16" width="44.97" height="7.14"/><rect x="730.85" y="296.16" width="44.97" height="7.14"/><path d="M174.56,590v24.17a11.36,11.36,0,0,1-3.16,8.23,12.75,12.75,0,0,1-8.51,3.59l-1.24,0q-5.84,0-9.31-3.15a11.26,11.26,0,0,1-3.51-8.67V590h4.64v24.07a8.2,8.2,0,1,0,16.38,0V590Z"/><path d="M196.63,618.56a3.31,3.31,0,0,0-1.38-2.84,13.19,13.19,0,0,0-4.81-1.75,22.54,22.54,0,0,1-5.44-1.76,7.66,7.66,0,0,1-3-2.44,5.84,5.84,0,0,1-1-3.37,6.85,6.85,0,0,1,2.74-5.49,10.71,10.71,0,0,1,7-2.25,11.08,11.08,0,0,1,7.29,2.32,7.39,7.39,0,0,1,2.79,5.94h-4.54a4.06,4.06,0,0,0-1.57-3.2,5.88,5.88,0,0,0-4-1.35,6.17,6.17,0,0,0-3.86,1.08,3.4,3.4,0,0,0-1.39,2.81,2.72,2.72,0,0,0,1.3,2.46,15.84,15.84,0,0,0,4.67,1.59,24.18,24.18,0,0,1,5.48,1.81,8,8,0,0,1,3.11,2.52,6.2,6.2,0,0,1,1,3.6,6.78,6.78,0,0,1-2.83,5.68,11.92,11.92,0,0,1-7.35,2.14,13.3,13.3,0,0,1-5.62-1.13,9.13,9.13,0,0,1-3.82-3.13,7.59,7.59,0,0,1-1.38-4.36h4.52a4.69,4.69,0,0,0,1.82,3.6,7,7,0,0,0,4.48,1.33,7.27,7.27,0,0,0,4.11-1A3.19,3.19,0,0,0,196.63,618.56Z"/><path d="M223.34,625.57a9.45,9.45,0,0,1-.63-2.79,10.06,10.06,0,0,1-7.52,3.28,9.34,9.34,0,0,1-6.41-2.21,7.16,7.16,0,0,1-2.51-5.61,7.46,7.46,0,0,1,3.14-6.4c2.09-1.53,5-2.29,8.83-2.29h4.39v-2.07a5.07,5.07,0,0,0-1.41-3.77A5.7,5.7,0,0,0,217,602.3a6.6,6.6,0,0,0-4,1.22,3.62,3.62,0,0,0-1.64,3h-4.54a6.19,6.19,0,0,1,1.41-3.82,9.47,9.47,0,0,1,3.8-2.92,12.8,12.8,0,0,1,5.29-1.08,10.39,10.39,0,0,1,7.15,2.29,8.22,8.22,0,0,1,2.69,6.28v12.16a14.83,14.83,0,0,0,.93,5.79v.39Zm-7.49-3.44a8,8,0,0,0,4-1.1,6.71,6.71,0,0,0,2.76-2.86v-5.42h-3.54q-8.29,0-8.3,4.86a4.11,4.11,0,0,0,1.42,3.32A5.41,5.41,0,0,0,215.85,622.13Z"/><path d="M247,603.2a14.09,14.09,0,0,0-2.22-.17c-3,0-5,1.27-6,3.79v18.75h-4.52V599.15h4.39l.08,3.05a7,7,0,0,1,6.3-3.54,4.6,4.6,0,0,1,2,.35Z"/><path d="M88.89,658.15l.12,2.93a9.76,9.76,0,0,1,7.84-3.42c3.7,0,6.21,1.42,7.55,4.25a9.87,9.87,0,0,1,3.43-3.07,10,10,0,0,1,5-1.18q8.69,0,8.84,9.21v17.7h-4.52V667.14a6.09,6.09,0,0,0-1.29-4.24c-.87-.94-2.32-1.4-4.35-1.4a6,6,0,0,0-4.18,1.5,6.08,6.08,0,0,0-1.92,4v17.53h-4.55V667.26c0-3.84-1.87-5.76-5.63-5.76a6,6,0,0,0-6.08,3.78v19.29H84.62V658.15Z"/><path d="M144.78,684.57a9.38,9.38,0,0,1-.64-2.79,10.06,10.06,0,0,1-7.52,3.28,9.35,9.35,0,0,1-6.41-2.21,7.15,7.15,0,0,1-2.5-5.61,7.46,7.46,0,0,1,3.14-6.4q3.14-2.3,8.82-2.29h4.4v-2.07a5,5,0,0,0-1.42-3.77,5.66,5.66,0,0,0-4.17-1.41,6.63,6.63,0,0,0-4.06,1.22,3.6,3.6,0,0,0-1.63,3h-4.54a6.24,6.24,0,0,1,1.4-3.82,9.58,9.58,0,0,1,3.81-2.92,12.73,12.73,0,0,1,5.29-1.08A10.41,10.41,0,0,1,145.9,660a8.21,8.21,0,0,1,2.68,6.28v12.16a14.83,14.83,0,0,0,.93,5.79v.39Zm-7.5-3.44a8,8,0,0,0,4-1.1,6.71,6.71,0,0,0,2.76-2.86v-5.42h-3.54q-8.31,0-8.3,4.86a4.13,4.13,0,0,0,1.41,3.32A5.45,5.45,0,0,0,137.28,681.13Z"/><path d="M171.05,677.56a3.31,3.31,0,0,0-1.38-2.84,13.27,13.27,0,0,0-4.81-1.75,22.49,22.49,0,0,1-5.45-1.76,7.74,7.74,0,0,1-3-2.44,5.84,5.84,0,0,1-1-3.37,6.83,6.83,0,0,1,2.75-5.49,10.7,10.7,0,0,1,7-2.25,11.06,11.06,0,0,1,7.29,2.32,7.37,7.37,0,0,1,2.8,5.94h-4.54a4.07,4.07,0,0,0-1.58-3.2,5.88,5.88,0,0,0-4-1.35,6.14,6.14,0,0,0-3.85,1.08,3.38,3.38,0,0,0-1.39,2.81,2.73,2.73,0,0,0,1.29,2.46,15.82,15.82,0,0,0,4.68,1.59,24.18,24.18,0,0,1,5.48,1.81,8,8,0,0,1,3.11,2.52,6.27,6.27,0,0,1,1,3.6,6.76,6.76,0,0,1-2.83,5.68,11.92,11.92,0,0,1-7.35,2.14,13.25,13.25,0,0,1-5.61-1.13A9.07,9.07,0,0,1,156,680.8a7.59,7.59,0,0,1-1.38-4.36h4.51a4.69,4.69,0,0,0,1.82,3.6,7,7,0,0,0,4.48,1.33,7.33,7.33,0,0,0,4.12-1A3.19,3.19,0,0,0,171.05,677.56Z"/><path d="M192,681.37a6.52,6.52,0,0,0,4.23-1.47,5.14,5.14,0,0,0,2-3.66h4.27a8.13,8.13,0,0,1-1.56,4.32,10.38,10.38,0,0,1-3.85,3.28,11.13,11.13,0,0,1-5.09,1.22,10.87,10.87,0,0,1-8.58-3.6q-3.18-3.62-3.19-9.86v-.75a16,16,0,0,1,1.42-6.86,10.78,10.78,0,0,1,4.06-4.67,11.64,11.64,0,0,1,6.27-1.66,10.6,10.6,0,0,1,7.38,2.66,9.53,9.53,0,0,1,3.14,6.91h-4.27a6.24,6.24,0,0,0-1.94-4.21,6,6,0,0,0-4.31-1.65,6.33,6.33,0,0,0-5.34,2.48q-1.89,2.48-1.89,7.17v.85q0,4.57,1.88,7A6.33,6.33,0,0,0,192,681.37Z"/><path d="M223.93,684.57a9.38,9.38,0,0,1-.64-2.79,10,10,0,0,1-7.52,3.28,9.35,9.35,0,0,1-6.41-2.21,7.15,7.15,0,0,1-2.5-5.61,7.46,7.46,0,0,1,3.14-6.4q3.13-2.3,8.82-2.29h4.4v-2.07a5,5,0,0,0-1.42-3.77,5.66,5.66,0,0,0-4.17-1.41,6.65,6.65,0,0,0-4.06,1.22,3.6,3.6,0,0,0-1.63,3H207.4a6.24,6.24,0,0,1,1.4-3.82,9.58,9.58,0,0,1,3.81-2.92,12.77,12.77,0,0,1,5.29-1.08,10.41,10.41,0,0,1,7.15,2.29,8.21,8.21,0,0,1,2.68,6.28v12.16a14.83,14.83,0,0,0,.93,5.79v.39Zm-7.5-3.44a8,8,0,0,0,4-1.1,6.71,6.71,0,0,0,2.76-2.86v-5.42h-3.54q-8.31,0-8.3,4.86a4.13,4.13,0,0,0,1.41,3.32A5.45,5.45,0,0,0,216.43,681.13Z"/><path d="M247.58,662.2a13.91,13.91,0,0,0-2.22-.17,6,6,0,0,0-6,3.79v18.75h-4.52V658.15h4.4l.07,3.05a7,7,0,0,1,6.3-3.54,4.54,4.54,0,0,1,2,.35Z"/><path d="M251.76,651.15a2.67,2.67,0,0,1,.67-1.86,3,3,0,0,1,4,0,2.64,2.64,0,0,1,.68,1.86,2.56,2.56,0,0,1-.68,1.83,2.67,2.67,0,0,1-4.66-1.83Zm4.88,33.42h-4.52V658.15h4.52Z"/><path d="M268.77,684.57h-4.51v-37.5h4.51Z"/><path d="M280.91,684.57h-4.52v-37.5h4.52Z"/><path d="M304.44,684.57a9.45,9.45,0,0,1-.63-2.79,10.06,10.06,0,0,1-7.52,3.28,9.35,9.35,0,0,1-6.41-2.21,7.15,7.15,0,0,1-2.5-5.61,7.43,7.43,0,0,1,3.14-6.4q3.14-2.3,8.82-2.29h4.4v-2.07a5.08,5.08,0,0,0-1.42-3.77,5.67,5.67,0,0,0-4.17-1.41,6.61,6.61,0,0,0-4.06,1.22,3.6,3.6,0,0,0-1.63,3h-4.54a6.18,6.18,0,0,1,1.4-3.82,9.44,9.44,0,0,1,3.81-2.92,12.72,12.72,0,0,1,5.28-1.08,10.42,10.42,0,0,1,7.16,2.29,8.21,8.21,0,0,1,2.68,6.28v12.16a14.83,14.83,0,0,0,.93,5.79v.39ZM297,681.13a8,8,0,0,0,4-1.1,6.71,6.71,0,0,0,2.76-2.86v-5.42H300.2q-8.31,0-8.3,4.86a4.13,4.13,0,0,0,1.41,3.32A5.43,5.43,0,0,0,297,681.13Z"/><path d="M542.62,590l11.62,29,11.63-29h6.07v35.55h-4.68V611.73l.44-15L556,625.57h-3.59l-11.65-28.71.47,14.87v13.84h-4.69V590Z"/><path d="M595.82,625.57a9.45,9.45,0,0,1-.63-2.79,10.06,10.06,0,0,1-7.52,3.28,9.34,9.34,0,0,1-6.41-2.21,7.15,7.15,0,0,1-2.5-5.61,7.45,7.45,0,0,1,3.13-6.4c2.09-1.53,5-2.29,8.83-2.29h4.39v-2.07a5.07,5.07,0,0,0-1.41-3.77,5.7,5.7,0,0,0-4.18-1.41,6.6,6.6,0,0,0-4,1.22,3.62,3.62,0,0,0-1.64,3h-4.54a6.19,6.19,0,0,1,1.41-3.82,9.44,9.44,0,0,1,3.81-2.92,12.72,12.72,0,0,1,5.28-1.08,10.39,10.39,0,0,1,7.15,2.29,8.22,8.22,0,0,1,2.69,6.28v12.16a14.83,14.83,0,0,0,.93,5.79v.39Zm-7.49-3.44a8,8,0,0,0,4-1.1,6.71,6.71,0,0,0,2.76-2.86v-5.42h-3.54q-8.3,0-8.3,4.86a4.11,4.11,0,0,0,1.42,3.32A5.41,5.41,0,0,0,588.33,622.13Z"/><path d="M611,599.15l.15,3.32a9.62,9.62,0,0,1,7.91-3.81q8.37,0,8.45,9.45v17.46H623V608.09a6.1,6.1,0,0,0-1.31-4.23,5.22,5.22,0,0,0-4-1.36,6.55,6.55,0,0,0-3.86,1.17,8,8,0,0,0-2.58,3.07v18.83h-4.52V599.15Z"/><path d="M640.43,592.76v6.39h4.93v3.49h-4.93v16.41a3.71,3.71,0,0,0,.65,2.38,2.78,2.78,0,0,0,2.25.79,10.55,10.55,0,0,0,2.15-.29v3.64a13.32,13.32,0,0,1-3.47.49,5.61,5.61,0,0,1-4.56-1.83,7.88,7.88,0,0,1-1.54-5.21V602.64H631.1v-3.49h4.81v-6.39Z"/><path d="M661.59,626.06a11.56,11.56,0,0,1-8.74-3.53,13.13,13.13,0,0,1-3.37-9.44v-.83a15.87,15.87,0,0,1,1.5-7,11.8,11.8,0,0,1,4.2-4.83,10.6,10.6,0,0,1,5.85-1.75,9.88,9.88,0,0,1,8,3.4q2.85,3.39,2.86,9.71v1.88H654a9.38,9.38,0,0,0,2.28,6.31,7.17,7.17,0,0,0,5.56,2.41,7.89,7.89,0,0,0,4-1,10.14,10.14,0,0,0,2.9-2.58l2.76,2.14Q668.24,626.07,661.59,626.06ZM661,602.37a6.06,6.06,0,0,0-4.59,2,9.65,9.65,0,0,0-2.29,5.58h13.23v-.34a8.58,8.58,0,0,0-1.86-5.33A5.67,5.67,0,0,0,661,602.37Z"/><path d="M681.39,599.15l.15,3.32a9.62,9.62,0,0,1,7.91-3.81q8.37,0,8.45,9.45v17.46h-4.52V608.09a6.1,6.1,0,0,0-1.31-4.23,5.22,5.22,0,0,0-4-1.36,6.55,6.55,0,0,0-3.86,1.17,8,8,0,0,0-2.58,3.07v18.83h-4.52V599.15Z"/><path d="M715.67,626.06a11.56,11.56,0,0,1-8.74-3.53q-3.37-3.53-3.37-9.44v-.83a15.87,15.87,0,0,1,1.5-7,11.66,11.66,0,0,1,4.2-4.83,10.6,10.6,0,0,1,5.85-1.75,9.89,9.89,0,0,1,8,3.4q2.85,3.39,2.85,9.71v1.88H708.08a9.33,9.33,0,0,0,2.28,6.31,7.16,7.16,0,0,0,5.55,2.41,7.9,7.9,0,0,0,4.06-1,10.27,10.27,0,0,0,2.9-2.58l2.76,2.14Q722.32,626.07,715.67,626.06Zm-.56-23.69a6.06,6.06,0,0,0-4.59,2,9.72,9.72,0,0,0-2.3,5.58h13.24v-.34a8.58,8.58,0,0,0-1.86-5.33A5.68,5.68,0,0,0,715.11,602.37Z"/><path d="M744,603.2a14.13,14.13,0,0,0-2.23-.17,6,6,0,0,0-6,3.79v18.75H731.2V599.15h4.39l.08,3.05a7,7,0,0,1,6.29-3.54,4.62,4.62,0,0,1,2,.35Z"/><path d="M462.33,671.14q0-6.07,2.88-9.78a9.79,9.79,0,0,1,14.89-.52V647.07h4.52v37.5h-4.16l-.21-2.83a9.23,9.23,0,0,1-7.55,3.32,9,9,0,0,1-7.48-3.76q-2.89-3.76-2.89-9.82Zm4.51.51a11.67,11.67,0,0,0,1.86,7,6,6,0,0,0,5.12,2.54,6.59,6.59,0,0,0,6.28-3.85V665.23a6.64,6.64,0,0,0-6.23-3.73,6,6,0,0,0-5.17,2.56Q466.84,666.63,466.84,671.65Z"/><path d="M491.65,651.15a2.67,2.67,0,0,1,.67-1.86,2.54,2.54,0,0,1,2-.76,2.58,2.58,0,0,1,2,.76,2.64,2.64,0,0,1,.68,1.86,2.56,2.56,0,0,1-.68,1.83,2.64,2.64,0,0,1-2,.73,2.42,2.42,0,0,1-2.66-2.56Zm4.88,33.42H492V658.15h4.52Z"/><path d="M519.14,677.56a3.31,3.31,0,0,0-1.38-2.84A13.27,13.27,0,0,0,513,673a22.64,22.64,0,0,1-5.45-1.76,7.74,7.74,0,0,1-3-2.44,5.84,5.84,0,0,1-1-3.37,6.86,6.86,0,0,1,2.75-5.49,10.71,10.71,0,0,1,7-2.25,11.05,11.05,0,0,1,7.28,2.32,7.37,7.37,0,0,1,2.8,5.94h-4.54a4.07,4.07,0,0,0-1.58-3.2,5.87,5.87,0,0,0-4-1.35,6.15,6.15,0,0,0-3.86,1.08,3.38,3.38,0,0,0-1.39,2.81,2.73,2.73,0,0,0,1.29,2.46,15.82,15.82,0,0,0,4.68,1.59,24.18,24.18,0,0,1,5.48,1.81,8,8,0,0,1,3.11,2.52,6.2,6.2,0,0,1,1,3.6,6.76,6.76,0,0,1-2.83,5.68,11.92,11.92,0,0,1-7.35,2.14,13.25,13.25,0,0,1-5.61-1.13A9.13,9.13,0,0,1,504,680.8a7.59,7.59,0,0,1-1.38-4.36h4.51A4.69,4.69,0,0,0,509,680a7,7,0,0,0,4.48,1.33,7.33,7.33,0,0,0,4.12-1A3.19,3.19,0,0,0,519.14,677.56Z"/><path d="M535.67,651.76v6.39h4.93v3.49h-4.93v16.41a3.65,3.65,0,0,0,.65,2.38,2.78,2.78,0,0,0,2.25.79,10.55,10.55,0,0,0,2.15-.29v3.64a13.32,13.32,0,0,1-3.47.49,5.61,5.61,0,0,1-4.56-1.83,7.88,7.88,0,0,1-1.54-5.21V661.64h-4.81v-3.49h4.81v-6.39Z"/><path d="M562.18,684.57a9.71,9.71,0,0,1-.64-2.79,10,10,0,0,1-7.52,3.28,9.31,9.31,0,0,1-6.4-2.21,7.16,7.16,0,0,1-2.51-5.61,7.46,7.46,0,0,1,3.14-6.4q3.13-2.3,8.83-2.29h4.39v-2.07a5,5,0,0,0-1.42-3.77,5.66,5.66,0,0,0-4.17-1.41,6.6,6.6,0,0,0-4,1.22,3.62,3.62,0,0,0-1.64,3h-4.54a6.24,6.24,0,0,1,1.4-3.82,9.58,9.58,0,0,1,3.81-2.92,12.8,12.8,0,0,1,5.29-1.08A10.39,10.39,0,0,1,563.3,660a8.22,8.22,0,0,1,2.69,6.28v12.16a14.83,14.83,0,0,0,.93,5.79v.39Zm-7.5-3.44a8,8,0,0,0,4-1.1,6.71,6.71,0,0,0,2.76-2.86v-5.42h-3.54q-8.29,0-8.3,4.86a4.11,4.11,0,0,0,1.42,3.32A5.41,5.41,0,0,0,554.68,681.13Z"/><path d="M577.34,658.15l.15,3.32a9.61,9.61,0,0,1,7.91-3.81q8.37,0,8.44,9.45v17.46h-4.51V667.09a6.1,6.1,0,0,0-1.31-4.23,5.22,5.22,0,0,0-4-1.36,6.53,6.53,0,0,0-3.86,1.17,8,8,0,0,0-2.59,3.07v18.83h-4.51V658.15Z"/><path d="M611.25,681.37a6.48,6.48,0,0,0,4.22-1.47,5.12,5.12,0,0,0,2-3.66h4.27a8.13,8.13,0,0,1-1.56,4.32,10.38,10.38,0,0,1-3.85,3.28,11.13,11.13,0,0,1-5.09,1.22,10.87,10.87,0,0,1-8.58-3.6q-3.18-3.62-3.19-9.86v-.75A16,16,0,0,1,600.9,664a10.78,10.78,0,0,1,4.06-4.67,11.64,11.64,0,0,1,6.27-1.66,10.6,10.6,0,0,1,7.38,2.66,9.53,9.53,0,0,1,3.14,6.91h-4.27a6.24,6.24,0,0,0-1.94-4.21,6,6,0,0,0-4.31-1.65,6.33,6.33,0,0,0-5.34,2.48Q604,666.33,604,671v.85q0,4.57,1.88,7A6.33,6.33,0,0,0,611.25,681.37Z"/><path d="M626.85,651.15a2.72,2.72,0,0,1,.67-1.86,3,3,0,0,1,4,0,2.64,2.64,0,0,1,.69,1.86,2.57,2.57,0,0,1-.69,1.83,2.67,2.67,0,0,1-4.66-1.83Zm4.88,33.42h-4.51V658.15h4.51Z"/><path d="M655.27,684.57a9.71,9.71,0,0,1-.64-2.79,10,10,0,0,1-7.51,3.28,9.32,9.32,0,0,1-6.41-2.21,7.16,7.16,0,0,1-2.51-5.61,7.46,7.46,0,0,1,3.14-6.4q3.13-2.3,8.83-2.29h4.39v-2.07a5.07,5.07,0,0,0-1.41-3.77A5.7,5.7,0,0,0,649,661.3a6.6,6.6,0,0,0-4.05,1.22,3.62,3.62,0,0,0-1.64,3h-4.54a6.19,6.19,0,0,1,1.41-3.82,9.47,9.47,0,0,1,3.8-2.92,12.8,12.8,0,0,1,5.29-1.08,10.39,10.39,0,0,1,7.15,2.29,8.22,8.22,0,0,1,2.69,6.28v12.16a14.83,14.83,0,0,0,.93,5.79v.39Zm-7.5-3.44a8,8,0,0,0,4-1.1,6.71,6.71,0,0,0,2.76-2.86v-5.42H651q-8.29,0-8.3,4.86a4.11,4.11,0,0,0,1.42,3.32A5.41,5.41,0,0,0,647.77,681.13Z"/><path d="M670.41,658.15l.12,2.93a9.75,9.75,0,0,1,7.84-3.42q5.53,0,7.54,4.25a9.88,9.88,0,0,1,8.42-4.25q8.7,0,8.84,9.21v17.7h-4.52V667.14a6.09,6.09,0,0,0-1.29-4.24c-.86-.94-2.31-1.4-4.35-1.4a6,6,0,0,0-4.17,1.5,6.08,6.08,0,0,0-1.93,4v17.53h-4.54V667.26q0-5.76-5.64-5.76a6,6,0,0,0-6.08,3.78v19.29h-4.52V658.15Z"/><path d="M710,651.15a2.67,2.67,0,0,1,.67-1.86,2.53,2.53,0,0,1,2-.76,2.58,2.58,0,0,1,2,.76,2.68,2.68,0,0,1,.68,1.86,2.61,2.61,0,0,1-.68,1.83,2.64,2.64,0,0,1-2,.73,2.42,2.42,0,0,1-2.66-2.56Zm4.88,33.42h-4.52V658.15h4.52Z"/><path d="M733.08,685.06a11.54,11.54,0,0,1-8.74-3.53Q721,678,721,672.09v-.83a15.87,15.87,0,0,1,1.5-7,11.66,11.66,0,0,1,4.2-4.83,10.6,10.6,0,0,1,5.85-1.75,9.86,9.86,0,0,1,8,3.4q2.87,3.39,2.86,9.71v1.88h-17.9a9.38,9.38,0,0,0,2.29,6.31,7.15,7.15,0,0,0,5.55,2.41,7.84,7.84,0,0,0,4-1,10.17,10.17,0,0,0,2.91-2.58L743,680Q739.71,685.07,733.08,685.06Zm-.56-23.69a6,6,0,0,0-4.59,2,9.66,9.66,0,0,0-2.3,5.58h13.23v-.34a8.64,8.64,0,0,0-1.85-5.33A5.69,5.69,0,0,0,732.52,661.37Z"/><path d="M752.88,658.15l.14,3.32a9.63,9.63,0,0,1,7.91-3.81q8.39,0,8.45,9.45v17.46h-4.52V667.09a6.09,6.09,0,0,0-1.3-4.23,5.25,5.25,0,0,0-4-1.36,6.53,6.53,0,0,0-3.86,1.17,8,8,0,0,0-2.59,3.07v18.83H748.6V658.15Z"/><path d="M782.32,651.76v6.39h4.93v3.49h-4.93v16.41a3.65,3.65,0,0,0,.66,2.38,2.78,2.78,0,0,0,2.25.79,10.47,10.47,0,0,0,2.14-.29v3.64a13.25,13.25,0,0,1-3.46.49,5.64,5.64,0,0,1-4.57-1.83A7.94,7.94,0,0,1,777.8,678V661.64H773v-3.49h4.81v-6.39Z"/><path d="M790.84,671.12a15.6,15.6,0,0,1,1.53-7,11.36,11.36,0,0,1,4.24-4.78,11.62,11.62,0,0,1,6.22-1.69,11.17,11.17,0,0,1,8.73,3.74q3.33,3.74,3.33,9.94v.31a15.66,15.66,0,0,1-1.48,6.92,11.16,11.16,0,0,1-4.22,4.78,11.7,11.7,0,0,1-6.31,1.71,11.14,11.14,0,0,1-8.71-3.74q-3.33-3.74-3.33-9.89Zm4.54.53a11.32,11.32,0,0,0,2,7.06,6.91,6.91,0,0,0,10.93,0c1.35-1.8,2-4.31,2-7.55a11.33,11.33,0,0,0-2.06-7,6.56,6.56,0,0,0-5.48-2.7,6.49,6.49,0,0,0-5.4,2.67C796.07,665.81,795.38,668.35,795.38,671.65Z"/></g></g></svg>