<svg xmlns="http://www.w3.org/2000/svg" viewBox="0 0 163.82 164"><defs><style>.cls-1{fill:#f29e46;}.cls-2{fill:#ba653a;}.cls-3{fill:#ffad29;}</style></defs><title>Recurso 4</title><g id="Capa_2" data-name="Capa 2"><g id="Capa_1-2" data-name="Capa 1"><polygon class="cls-1" points="37.5 41.92 28.5 41.92 28.5 32.33 37.42 32.33 37.42 23.48 47.03 23.48 47.03 32.27 56 32.27 56 41.94 47.11 41.94 47.11 58.52 37.5 58.52 37.5 41.92"/><path d="M163.43,137.09a28.26,28.26,0,0,0-28.05-23.72q-23.38,0-46.76,0a35.76,35.76,0,0,0-4.62.33c-12.55,1.71-23.07,13-23.79,25.66-.14,2.52,0,5,0,7.55a4.07,4.07,0,0,1-.59-.41c-7.49-6.45-11.89-14.54-12.18-24.46S47.35,102,47.28,92c0-1.4.32-2.07,1.81-2a9.44,9.44,0,0,0,2.2-.4C71.22,85,84.63,68.27,84.73,47.6c.07-15.31,0-30.63,0-45.95V0H0V48.37A106.1,106.1,0,0,0,1.61,58.92,42.1,42.1,0,0,0,36.65,90c.21,0,.41.09.83.19v29.36A34.51,34.51,0,0,1,3.93,154.38c-.27,0-.53,0-1.05.08V164H144.14a2.63,2.63,0,0,1,.58-.24C157.87,161.38,165.69,150.25,163.43,137.09ZM10,50.52C9.47,40,9.8,29.5,9.76,19c0-3.08,0-6.17,0-9.31H75.13v1.61c0,12.07,0,24.13,0,36.2-.06,16.37-10.59,29.44-26.31,32.73C29.82,84.2,10.87,69.91,10,50.52Zm20.9,103.79a45.67,45.67,0,0,0,11.4-14c1.74,2.54,3.27,5.08,5.12,7.37s4,4.36,6.2,6.64ZM153.77,145a12.39,12.39,0,0,1-11.8,9.36c-20,.06-40,.09-60,0-7.85,0-13.22-7.09-12-15.39A18.86,18.86,0,0,1,88,123a11.62,11.62,0,0,1,12.08,10.62c.07.58.12,1.16.18,1.81h9.45a21.51,21.51,0,0,0-3.33-12.32c4.07,0,8-.34,11.81.08,5.49.6,9.43,5.21,9.88,10.78,0,.47.06.94.09,1.47h9.49a21.67,21.67,0,0,0-3.31-12.28c7.42-1,15.53,4.12,18.48,11.52A16.27,16.27,0,0,1,153.77,145Z"/><path class="cls-2" d="M153.77,145a12.39,12.39,0,0,1-11.8,9.36c-20,.06-40,.09-60,0-7.85,0-13.22-7.09-12-15.39A18.86,18.86,0,0,1,88,123a11.62,11.62,0,0,1,12.08,10.62c.07.58.12,1.16.18,1.81h9.45a21.51,21.51,0,0,0-3.33-12.32c4.07,0,8-.34,11.81.08,5.49.6,9.43,5.21,9.88,10.78,0,.47.06.94.09,1.47h9.49a21.67,21.67,0,0,0-3.31-12.28c7.42-1,15.53,4.12,18.48,11.52A16.27,16.27,0,0,1,153.77,145Z"/><path class="cls-3" d="M53.58,154.31H30.86a45.67,45.67,0,0,0,11.4-14c1.74,2.54,3.27,5.08,5.12,7.37S51.43,152,53.58,154.31Z"/><path class="cls-3" d="M75.13,11.28V9.67H9.76c0,3.14,0,6.23,0,9.31C9.8,29.5,9.47,40,10,50.52c.91,19.39,19.86,33.68,38.85,29.69,15.72-3.29,26.25-16.36,26.31-32.73C75.17,35.41,75.13,23.35,75.13,11.28ZM56,41.94H47.11V58.52H37.5V41.92h-9V32.33h8.92V23.48H47v8.79h9Z"/><polygon points="56 32.27 56 41.94 47.11 41.94 47.11 58.52 37.5 58.52 37.5 41.92 28.5 41.92 28.5 32.33 37.42 32.33 37.42 23.48 47.03 23.48 47.03 32.27 56 32.27"/></g></g></svg>